<svg xmlns="http://www.w3.org/2000/svg" version="1.1" xmlns:xlink="http://www.w3.org/1999/xlink" xmlns:svgjs="http://svgjs.dev/svgjs" width="5000" height="5000" preserveAspectRatio="none" viewBox="0 0 5000 5000"><g mask="url(&quot;#SvgjsMask1226&quot;)" fill="none"><rect width="5000" height="5000" x="0" y="0" fill="rgba(214, 214, 214, 1)"></rect><path d="M149.45 84.65L222.2 126.65L222.2 210.65L149.45 252.65L76.7 210.65L76.7 126.65zM76.7 210.65L149.45 252.65L149.45 336.65L76.7 378.65L3.95 336.65L3.95 252.65zM149.45 588.65L222.2 630.65L222.2 714.65L149.45 756.65L76.7 714.65L76.7 630.65zM149.45 1092.65L222.2 1134.65L222.2 1218.65L149.45 1260.65L76.7 1218.65L76.7 1134.65zM76.7 1470.65L149.45 1512.65L149.45 1596.65L76.7 1638.65L3.95 1596.65L3.95 1512.65zM149.45 1596.65L222.2 1638.65L222.2 1722.65L149.45 1764.65L76.7 1722.65L76.7 1638.65zM76.7 1722.65L149.45 1764.65L149.45 1848.65L76.7 1890.65L3.95 1848.65L3.95 1764.65zM76.7 1974.65L149.45 2016.65L149.45 2100.65L76.7 2142.65L3.95 2100.65L3.95 2016.65zM149.45 2100.65L222.2 2142.65L222.2 2226.65L149.45 2268.65L76.7 2226.65L76.7 2142.65zM76.7 2226.65L149.45 2268.65L149.45 2352.65L76.7 2394.65L3.95 2352.65L3.95 2268.65zM76.7 2730.65L149.45 2772.65L149.45 2856.65L76.7 2898.65L3.95 2856.65L3.95 2772.65zM149.45 2856.65L222.2 2898.65L222.2 2982.65L149.45 3024.65L76.7 2982.65L76.7 2898.65zM149.45 3108.65L222.2 3150.65L222.2 3234.65L149.45 3276.65L76.7 3234.65L76.7 3150.65zM76.7 3486.65L149.45 3528.65L149.45 3612.65L76.7 3654.65L3.95 3612.65L3.95 3528.65zM149.45 3612.65L222.2 3654.65L222.2 3738.65L149.45 3780.65L76.7 3738.65L76.7 3654.65zM149.45 3864.65L222.2 3906.65L222.2 3990.65L149.45 4032.65L76.7 3990.65L76.7 3906.65zM76.7 3990.65L149.45 4032.65L149.45 4116.65L76.7 4158.65L3.95 4116.65L3.95 4032.65zM76.7 4494.65L149.45 4536.65L149.45 4620.65L76.7 4662.65L3.95 4620.65L3.95 4536.65zM76.7 4746.65L149.45 4788.65L149.45 4872.65L76.7 4914.65L3.95 4872.65L3.95 4788.65zM149.45 4872.65L222.2 4914.65L222.2 4998.65L149.45 5040.65L76.7 4998.65L76.7 4914.65zM76.7 4998.65L149.45 5040.65L149.45 5124.65L76.7 5166.65L3.95 5124.65L3.95 5040.65zM222.2 -41.35L294.94 0.65L294.94 84.65L222.2 126.65L149.45 84.65L149.45 0.65zM294.94 84.65L367.69 126.65L367.69 210.65L294.94 252.65L222.2 210.65L222.2 126.65zM222.2 210.65L294.94 252.65L294.94 336.65L222.2 378.65L149.45 336.65L149.45 252.65zM294.94 336.65L367.69 378.65L367.69 462.65L294.94 504.65L222.2 462.65L222.2 378.65zM222.2 462.65L294.94 504.65L294.94 588.65L222.2 630.65L149.45 588.65L149.45 504.65zM222.2 714.65L294.94 756.65L294.94 840.65L222.2 882.65L149.45 840.65L149.45 756.65zM294.94 840.65L367.69 882.65L367.69 966.65L294.94 1008.65L222.2 966.65L222.2 882.65zM222.2 966.65L294.94 1008.65L294.94 1092.65L222.2 1134.65L149.45 1092.65L149.45 1008.65zM294.94 1092.65L367.69 1134.65L367.69 1218.65L294.94 1260.65L222.2 1218.65L222.2 1134.65zM222.2 1218.65L294.94 1260.65L294.94 1344.65L222.2 1386.65L149.45 1344.65L149.45 1260.65zM294.94 1344.65L367.69 1386.65L367.69 1470.65L294.94 1512.65L222.2 1470.65L222.2 1386.65zM222.2 1470.65L294.94 1512.65L294.94 1596.65L222.2 1638.65L149.45 1596.65L149.45 1512.65zM222.2 1722.65L294.94 1764.65L294.94 1848.65L222.2 1890.65L149.45 1848.65L149.45 1764.65zM294.94 2100.65L367.69 2142.65L367.69 2226.65L294.94 2268.65L222.2 2226.65L222.2 2142.65zM294.94 2352.65L367.69 2394.65L367.69 2478.65L294.94 2520.65L222.2 2478.65L222.2 2394.65zM222.2 2478.65L294.94 2520.65L294.94 2604.65L222.2 2646.65L149.45 2604.65L149.45 2520.65zM294.94 2604.65L367.69 2646.65L367.69 2730.65L294.94 2772.65L222.2 2730.65L222.2 2646.65zM294.94 2856.65L367.69 2898.65L367.69 2982.65L294.94 3024.65L222.2 2982.65L222.2 2898.65zM222.2 3234.65L294.94 3276.65L294.94 3360.65L222.2 3402.65L149.45 3360.65L149.45 3276.65zM222.2 3486.65L294.94 3528.65L294.94 3612.65L222.2 3654.65L149.45 3612.65L149.45 3528.65zM294.94 4116.65L367.69 4158.65L367.69 4242.65L294.94 4284.65L222.2 4242.65L222.2 4158.65zM222.2 4242.65L294.94 4284.65L294.94 4368.65L222.2 4410.65L149.45 4368.65L149.45 4284.65zM294.94 4620.65L367.69 4662.65L367.69 4746.65L294.94 4788.65L222.2 4746.65L222.2 4662.65zM294.94 4872.65L367.69 4914.65L367.69 4998.65L294.94 5040.65L222.2 4998.65L222.2 4914.65zM440.44 84.65L513.19 126.65L513.19 210.65L440.44 252.65L367.69 210.65L367.69 126.65zM367.69 210.65L440.44 252.65L440.44 336.65L367.69 378.65L294.94 336.65L294.94 252.65zM440.44 336.65L513.19 378.65L513.19 462.65L440.44 504.65L367.69 462.65L367.69 378.65zM367.69 462.65L440.44 504.65L440.44 588.65L367.69 630.65L294.94 588.65L294.94 504.65zM367.69 714.65L440.44 756.65L440.44 840.65L367.69 882.65L294.94 840.65L294.94 756.65zM440.44 1092.65L513.19 1134.65L513.19 1218.65L440.44 1260.65L367.69 1218.65L367.69 1134.65zM440.44 1344.65L513.19 1386.65L513.19 1470.65L440.44 1512.65L367.69 1470.65L367.69 1386.65zM367.69 1470.65L440.44 1512.65L440.44 1596.65L367.69 1638.65L294.94 1596.65L294.94 1512.65zM440.44 1596.65L513.19 1638.65L513.19 1722.65L440.44 1764.65L367.69 1722.65L367.69 1638.65zM367.69 1974.65L440.44 2016.65L440.44 2100.65L367.69 2142.65L294.94 2100.65L294.94 2016.65zM367.69 2226.65L440.44 2268.65L440.44 2352.65L367.69 2394.65L294.94 2352.65L294.94 2268.65zM367.69 2478.65L440.44 2520.65L440.44 2604.65L367.69 2646.65L294.94 2604.65L294.94 2520.65zM440.44 2856.65L513.19 2898.65L513.19 2982.65L440.44 3024.65L367.69 2982.65L367.69 2898.65zM367.69 2982.65L440.44 3024.65L440.44 3108.65L367.69 3150.65L294.94 3108.65L294.94 3024.65zM440.44 3360.65L513.19 3402.65L513.19 3486.65L440.44 3528.65L367.69 3486.65L367.69 3402.65zM367.69 3486.65L440.44 3528.65L440.44 3612.65L367.69 3654.65L294.94 3612.65L294.94 3528.65zM440.44 3612.65L513.19 3654.65L513.19 3738.65L440.44 3780.65L367.69 3738.65L367.69 3654.65zM440.44 3864.65L513.19 3906.65L513.19 3990.65L440.44 4032.65L367.69 3990.65L367.69 3906.65zM367.69 3990.65L440.44 4032.65L440.44 4116.65L367.69 4158.65L294.94 4116.65L294.94 4032.65zM440.44 4116.65L513.19 4158.65L513.19 4242.65L440.44 4284.65L367.69 4242.65L367.69 4158.65zM367.69 4242.65L440.44 4284.65L440.44 4368.65L367.69 4410.65L294.94 4368.65L294.94 4284.65zM440.44 4368.65L513.19 4410.65L513.19 4494.65L440.44 4536.65L367.69 4494.65L367.69 4410.65zM367.69 4494.65L440.44 4536.65L440.44 4620.65L367.69 4662.65L294.94 4620.65L294.94 4536.65zM440.44 4620.65L513.19 4662.65L513.19 4746.65L440.44 4788.65L367.69 4746.65L367.69 4662.65zM367.69 4746.65L440.44 4788.65L440.44 4872.65L367.69 4914.65L294.94 4872.65L294.94 4788.65zM367.69 4998.65L440.44 5040.65L440.44 5124.65L367.69 5166.65L294.94 5124.65L294.94 5040.65zM585.94 84.65L658.69 126.65L658.69 210.65L585.94 252.65L513.19 210.65L513.19 126.65zM585.94 588.65L658.69 630.65L658.69 714.65L585.94 756.65L513.19 714.65L513.19 630.65zM513.19 1218.65L585.94 1260.65L585.94 1344.65L513.19 1386.65L440.44 1344.65L440.44 1260.65zM585.94 1344.65L658.69 1386.65L658.69 1470.65L585.94 1512.65L513.19 1470.65L513.19 1386.65zM585.94 1596.65L658.69 1638.65L658.69 1722.65L585.94 1764.65L513.19 1722.65L513.19 1638.65zM513.19 1974.65L585.94 2016.65L585.94 2100.65L513.19 2142.65L440.44 2100.65L440.44 2016.65zM585.94 2100.65L658.69 2142.65L658.69 2226.65L585.94 2268.65L513.19 2226.65L513.19 2142.65zM513.19 2226.65L585.94 2268.65L585.94 2352.65L513.19 2394.65L440.44 2352.65L440.44 2268.65zM513.19 2478.65L585.94 2520.65L585.94 2604.65L513.19 2646.65L440.44 2604.65L440.44 2520.65zM585.94 2604.65L658.69 2646.65L658.69 2730.65L585.94 2772.65L513.19 2730.65L513.19 2646.65zM585.94 2856.65L658.69 2898.65L658.69 2982.65L585.94 3024.65L513.19 2982.65L513.19 2898.65zM513.19 2982.65L585.94 3024.65L585.94 3108.65L513.19 3150.65L440.44 3108.65L440.44 3024.65zM513.19 3486.65L585.94 3528.65L585.94 3612.65L513.19 3654.65L440.44 3612.65L440.44 3528.65zM513.19 3738.65L585.94 3780.65L585.94 3864.65L513.19 3906.65L440.44 3864.65L440.44 3780.65zM585.94 4116.65L658.69 4158.65L658.69 4242.65L585.94 4284.65L513.19 4242.65L513.19 4158.65zM585.94 4872.65L658.69 4914.65L658.69 4998.65L585.94 5040.65L513.19 4998.65L513.19 4914.65zM731.43 84.65L804.18 126.65L804.18 210.65L731.43 252.65L658.69 210.65L658.69 126.65zM658.69 210.65L731.43 252.65L731.43 336.65L658.69 378.65L585.94 336.65L585.94 252.65zM731.43 588.65L804.18 630.65L804.18 714.65L731.43 756.65L658.69 714.65L658.69 630.65zM658.69 714.65L731.43 756.65L731.43 840.65L658.69 882.65L585.94 840.65L585.94 756.65zM731.43 840.65L804.18 882.65L804.18 966.65L731.43 1008.65L658.69 966.65L658.69 882.65zM658.69 1218.65L731.43 1260.65L731.43 1344.65L658.69 1386.65L585.94 1344.65L585.94 1260.65zM731.43 1344.65L804.18 1386.65L804.18 1470.65L731.43 1512.65L658.69 1470.65L658.69 1386.65zM731.43 1596.65L804.18 1638.65L804.18 1722.65L731.43 1764.65L658.69 1722.65L658.69 1638.65zM658.69 1974.65L731.43 2016.65L731.43 2100.65L658.69 2142.65L585.94 2100.65L585.94 2016.65zM658.69 2226.65L731.43 2268.65L731.43 2352.65L658.69 2394.65L585.94 2352.65L585.94 2268.65zM731.43 3360.65L804.18 3402.65L804.18 3486.65L731.43 3528.65L658.69 3486.65L658.69 3402.65zM658.69 3486.65L731.43 3528.65L731.43 3612.65L658.69 3654.65L585.94 3612.65L585.94 3528.65zM731.43 3612.65L804.18 3654.65L804.18 3738.65L731.43 3780.65L658.69 3738.65L658.69 3654.65zM658.69 3990.65L731.43 4032.65L731.43 4116.65L658.69 4158.65L585.94 4116.65L585.94 4032.65zM731.43 4620.65L804.18 4662.65L804.18 4746.65L731.43 4788.65L658.69 4746.65L658.69 4662.65zM658.69 4746.65L731.43 4788.65L731.43 4872.65L658.69 4914.65L585.94 4872.65L585.94 4788.65zM658.69 4998.65L731.43 5040.65L731.43 5124.65L658.69 5166.65L585.94 5124.65L585.94 5040.65zM876.93 84.65L949.68 126.65L949.68 210.65L876.93 252.65L804.18 210.65L804.18 126.65zM804.18 210.65L876.93 252.65L876.93 336.65L804.18 378.65L731.43 336.65L731.43 252.65zM876.93 336.65L949.68 378.65L949.68 462.65L876.93 504.65L804.18 462.65L804.18 378.65zM804.18 462.65L876.93 504.65L876.93 588.65L804.18 630.65L731.43 588.65L731.43 504.65zM876.93 588.65L949.68 630.65L949.68 714.65L876.93 756.65L804.18 714.65L804.18 630.65zM804.18 1218.65L876.93 1260.65L876.93 1344.65L804.18 1386.65L731.43 1344.65L731.43 1260.65zM876.93 1596.65L949.68 1638.65L949.68 1722.65L876.93 1764.65L804.18 1722.65L804.18 1638.65zM804.18 1722.65L876.93 1764.65L876.93 1848.65L804.18 1890.65L731.43 1848.65L731.43 1764.65zM804.18 2226.65L876.93 2268.65L876.93 2352.65L804.18 2394.65L731.43 2352.65L731.43 2268.65zM876.93 2352.65L949.68 2394.65L949.68 2478.65L876.93 2520.65L804.18 2478.65L804.18 2394.65zM804.18 2478.65L876.93 2520.65L876.93 2604.65L804.18 2646.65L731.43 2604.65L731.43 2520.65zM876.93 2604.65L949.68 2646.65L949.68 2730.65L876.93 2772.65L804.18 2730.65L804.18 2646.65zM876.93 3108.65L949.68 3150.65L949.68 3234.65L876.93 3276.65L804.18 3234.65L804.18 3150.65zM804.18 3234.65L876.93 3276.65L876.93 3360.65L804.18 3402.65L731.43 3360.65L731.43 3276.65zM876.93 3360.65L949.68 3402.65L949.68 3486.65L876.93 3528.65L804.18 3486.65L804.18 3402.65zM804.18 3486.65L876.93 3528.65L876.93 3612.65L804.18 3654.65L731.43 3612.65L731.43 3528.65zM876.93 3864.65L949.68 3906.65L949.68 3990.65L876.93 4032.65L804.18 3990.65L804.18 3906.65zM804.18 3990.65L876.93 4032.65L876.93 4116.65L804.18 4158.65L731.43 4116.65L731.43 4032.65zM804.18 4242.65L876.93 4284.65L876.93 4368.65L804.18 4410.65L731.43 4368.65L731.43 4284.65zM876.93 4368.65L949.68 4410.65L949.68 4494.65L876.93 4536.65L804.18 4494.65L804.18 4410.65zM804.18 4494.65L876.93 4536.65L876.93 4620.65L804.18 4662.65L731.43 4620.65L731.43 4536.65zM804.18 4746.65L876.93 4788.65L876.93 4872.65L804.18 4914.65L731.43 4872.65L731.43 4788.65zM1022.43 588.65L1095.17 630.65L1095.17 714.65L1022.43 756.65L949.68 714.65L949.68 630.65zM949.68 714.65L1022.43 756.65L1022.43 840.65L949.68 882.65L876.93 840.65L876.93 756.65zM949.68 1218.65L1022.43 1260.65L1022.43 1344.65L949.68 1386.65L876.93 1344.65L876.93 1260.65zM1022.43 1344.65L1095.17 1386.65L1095.17 1470.65L1022.43 1512.65L949.68 1470.65L949.68 1386.65zM949.68 1470.65L1022.43 1512.65L1022.43 1596.65L949.68 1638.65L876.93 1596.65L876.93 1512.65zM1022.43 1596.65L1095.17 1638.65L1095.17 1722.65L1022.43 1764.65L949.68 1722.65L949.68 1638.65zM949.68 1722.65L1022.43 1764.65L1022.43 1848.65L949.68 1890.65L876.93 1848.65L876.93 1764.65zM949.68 1974.65L1022.43 2016.65L1022.43 2100.65L949.68 2142.65L876.93 2100.65L876.93 2016.65zM1022.43 2100.65L1095.17 2142.65L1095.17 2226.65L1022.43 2268.65L949.68 2226.65L949.68 2142.65zM1022.43 2352.65L1095.17 2394.65L1095.17 2478.65L1022.43 2520.65L949.68 2478.65L949.68 2394.65zM949.68 2478.65L1022.43 2520.65L1022.43 2604.65L949.68 2646.65L876.93 2604.65L876.93 2520.65zM949.68 2730.65L1022.43 2772.65L1022.43 2856.65L949.68 2898.65L876.93 2856.65L876.93 2772.65zM1022.43 2856.65L1095.17 2898.65L1095.17 2982.65L1022.43 3024.65L949.68 2982.65L949.68 2898.65zM949.68 2982.65L1022.43 3024.65L1022.43 3108.65L949.68 3150.65L876.93 3108.65L876.93 3024.65zM1022.43 3108.65L1095.17 3150.65L1095.17 3234.65L1022.43 3276.65L949.68 3234.65L949.68 3150.65zM949.68 3234.65L1022.43 3276.65L1022.43 3360.65L949.68 3402.65L876.93 3360.65L876.93 3276.65zM1022.43 3360.65L1095.17 3402.65L1095.17 3486.65L1022.43 3528.65L949.68 3486.65L949.68 3402.65zM949.68 3486.65L1022.43 3528.65L1022.43 3612.65L949.68 3654.65L876.93 3612.65L876.93 3528.65zM1022.43 4872.65L1095.17 4914.65L1095.17 4998.65L1022.43 5040.65L949.68 4998.65L949.68 4914.65zM1095.17 -41.35L1167.92 0.65L1167.92 84.65L1095.17 126.65L1022.43 84.65L1022.43 0.65zM1167.92 84.65L1240.67 126.65L1240.67 210.65L1167.92 252.65L1095.17 210.65L1095.17 126.65zM1095.17 210.65L1167.92 252.65L1167.92 336.65L1095.17 378.65L1022.43 336.65L1022.43 252.65zM1095.17 462.65L1167.92 504.65L1167.92 588.65L1095.17 630.65L1022.43 588.65L1022.43 504.65zM1095.17 1722.65L1167.92 1764.65L1167.92 1848.65L1095.17 1890.65L1022.43 1848.65L1022.43 1764.65zM1095.17 1974.65L1167.92 2016.65L1167.92 2100.65L1095.17 2142.65L1022.43 2100.65L1022.43 2016.65zM1095.17 2226.65L1167.92 2268.65L1167.92 2352.65L1095.17 2394.65L1022.43 2352.65L1022.43 2268.65zM1167.92 2856.65L1240.67 2898.65L1240.67 2982.65L1167.92 3024.65L1095.17 2982.65L1095.17 2898.65zM1095.17 3234.65L1167.92 3276.65L1167.92 3360.65L1095.17 3402.65L1022.43 3360.65L1022.43 3276.65zM1167.92 3360.65L1240.67 3402.65L1240.67 3486.65L1167.92 3528.65L1095.17 3486.65L1095.17 3402.65zM1167.92 3864.65L1240.67 3906.65L1240.67 3990.65L1167.92 4032.65L1095.17 3990.65L1095.17 3906.65zM1095.17 3990.65L1167.92 4032.65L1167.92 4116.65L1095.17 4158.65L1022.43 4116.65L1022.43 4032.65zM1167.92 4116.65L1240.67 4158.65L1240.67 4242.65L1167.92 4284.65L1095.17 4242.65L1095.17 4158.65zM1167.92 4368.65L1240.67 4410.65L1240.67 4494.65L1167.92 4536.65L1095.17 4494.65L1095.17 4410.65zM1167.92 4620.65L1240.67 4662.65L1240.67 4746.65L1167.92 4788.65L1095.17 4746.65L1095.17 4662.65zM1095.17 4998.65L1167.92 5040.65L1167.92 5124.65L1095.17 5166.65L1022.43 5124.65L1022.43 5040.65zM1313.42 84.65L1386.17 126.65L1386.17 210.65L1313.42 252.65L1240.67 210.65L1240.67 126.65zM1240.67 210.65L1313.42 252.65L1313.42 336.65L1240.67 378.65L1167.92 336.65L1167.92 252.65zM1313.42 336.65L1386.17 378.65L1386.17 462.65L1313.42 504.65L1240.67 462.65L1240.67 378.65zM1240.67 462.65L1313.42 504.65L1313.42 588.65L1240.67 630.65L1167.92 588.65L1167.92 504.65zM1313.42 588.65L1386.17 630.65L1386.17 714.65L1313.42 756.65L1240.67 714.65L1240.67 630.65zM1240.67 966.65L1313.42 1008.65L1313.42 1092.65L1240.67 1134.65L1167.92 1092.65L1167.92 1008.65zM1313.42 1092.65L1386.17 1134.65L1386.17 1218.65L1313.42 1260.65L1240.67 1218.65L1240.67 1134.65zM1240.67 1218.65L1313.42 1260.65L1313.42 1344.65L1240.67 1386.65L1167.92 1344.65L1167.92 1260.65zM1313.42 1596.65L1386.17 1638.65L1386.17 1722.65L1313.42 1764.65L1240.67 1722.65L1240.67 1638.65zM1240.67 1974.65L1313.42 2016.65L1313.42 2100.65L1240.67 2142.65L1167.92 2100.65L1167.92 2016.65zM1313.42 2100.65L1386.17 2142.65L1386.17 2226.65L1313.42 2268.65L1240.67 2226.65L1240.67 2142.65zM1313.42 2352.65L1386.17 2394.65L1386.17 2478.65L1313.42 2520.65L1240.67 2478.65L1240.67 2394.65zM1313.42 2604.65L1386.17 2646.65L1386.17 2730.65L1313.42 2772.65L1240.67 2730.65L1240.67 2646.65zM1313.42 3108.65L1386.17 3150.65L1386.17 3234.65L1313.42 3276.65L1240.67 3234.65L1240.67 3150.65zM1313.42 3612.65L1386.17 3654.65L1386.17 3738.65L1313.42 3780.65L1240.67 3738.65L1240.67 3654.65zM1240.67 3738.65L1313.42 3780.65L1313.42 3864.65L1240.67 3906.65L1167.92 3864.65L1167.92 3780.65zM1313.42 3864.65L1386.17 3906.65L1386.17 3990.65L1313.42 4032.65L1240.67 3990.65L1240.67 3906.65zM1240.67 3990.65L1313.42 4032.65L1313.42 4116.65L1240.67 4158.65L1167.92 4116.65L1167.92 4032.65zM1240.67 4494.65L1313.42 4536.65L1313.42 4620.65L1240.67 4662.65L1167.92 4620.65L1167.92 4536.65zM1313.42 4620.65L1386.17 4662.65L1386.17 4746.65L1313.42 4788.65L1240.67 4746.65L1240.67 4662.65zM1313.42 4872.65L1386.17 4914.65L1386.17 4998.65L1313.42 5040.65L1240.67 4998.65L1240.67 4914.65zM1240.67 4998.65L1313.42 5040.65L1313.42 5124.65L1240.67 5166.65L1167.92 5124.65L1167.92 5040.65zM1386.17 -41.35L1458.92 0.65L1458.92 84.65L1386.17 126.65L1313.42 84.65L1313.42 0.65zM1458.92 336.65L1531.66 378.65L1531.66 462.65L1458.92 504.65L1386.17 462.65L1386.17 378.65zM1458.92 588.65L1531.66 630.65L1531.66 714.65L1458.92 756.65L1386.17 714.65L1386.17 630.65zM1386.17 714.65L1458.92 756.65L1458.92 840.65L1386.17 882.65L1313.42 840.65L1313.42 756.65zM1458.92 1092.65L1531.66 1134.65L1531.66 1218.65L1458.92 1260.65L1386.17 1218.65L1386.17 1134.65zM1458.92 1344.65L1531.66 1386.65L1531.66 1470.65L1458.92 1512.65L1386.17 1470.65L1386.17 1386.65zM1386.17 1974.65L1458.92 2016.65L1458.92 2100.65L1386.17 2142.65L1313.42 2100.65L1313.42 2016.65zM1458.92 2352.65L1531.66 2394.65L1531.66 2478.65L1458.92 2520.65L1386.17 2478.65L1386.17 2394.65zM1458.92 2856.65L1531.66 2898.65L1531.66 2982.65L1458.92 3024.65L1386.17 2982.65L1386.17 2898.65zM1386.17 2982.65L1458.92 3024.65L1458.92 3108.65L1386.17 3150.65L1313.42 3108.65L1313.42 3024.65zM1458.92 3108.65L1531.66 3150.65L1531.66 3234.65L1458.92 3276.65L1386.17 3234.65L1386.17 3150.65zM1386.17 3234.65L1458.92 3276.65L1458.92 3360.65L1386.17 3402.65L1313.42 3360.65L1313.42 3276.65zM1458.92 3360.65L1531.66 3402.65L1531.66 3486.65L1458.92 3528.65L1386.17 3486.65L1386.17 3402.65zM1386.17 3990.65L1458.92 4032.65L1458.92 4116.65L1386.17 4158.65L1313.42 4116.65L1313.42 4032.65zM1458.92 4116.65L1531.66 4158.65L1531.66 4242.65L1458.92 4284.65L1386.17 4242.65L1386.17 4158.65zM1386.17 4242.65L1458.92 4284.65L1458.92 4368.65L1386.17 4410.65L1313.42 4368.65L1313.42 4284.65zM1458.92 4872.65L1531.66 4914.65L1531.66 4998.65L1458.92 5040.65L1386.17 4998.65L1386.17 4914.65zM1604.41 588.65L1677.16 630.65L1677.16 714.65L1604.41 756.65L1531.66 714.65L1531.66 630.65zM1604.41 840.65L1677.16 882.65L1677.16 966.65L1604.41 1008.65L1531.66 966.65L1531.66 882.65zM1604.41 1092.65L1677.16 1134.65L1677.16 1218.65L1604.41 1260.65L1531.66 1218.65L1531.66 1134.65zM1531.66 1218.65L1604.41 1260.65L1604.41 1344.65L1531.66 1386.65L1458.92 1344.65L1458.92 1260.65zM1604.41 1344.65L1677.16 1386.65L1677.16 1470.65L1604.41 1512.65L1531.66 1470.65L1531.66 1386.65zM1604.41 1596.65L1677.16 1638.65L1677.16 1722.65L1604.41 1764.65L1531.66 1722.65L1531.66 1638.65zM1531.66 1722.65L1604.41 1764.65L1604.41 1848.65L1531.66 1890.65L1458.92 1848.65L1458.92 1764.65zM1604.41 1848.65L1677.16 1890.65L1677.16 1974.65L1604.41 2016.65L1531.66 1974.65L1531.66 1890.65zM1531.66 1974.65L1604.41 2016.65L1604.41 2100.65L1531.66 2142.65L1458.92 2100.65L1458.92 2016.65zM1604.41 2100.65L1677.16 2142.65L1677.16 2226.65L1604.41 2268.65L1531.66 2226.65L1531.66 2142.65zM1531.66 2226.65L1604.41 2268.65L1604.41 2352.65L1531.66 2394.65L1458.92 2352.65L1458.92 2268.65zM1531.66 2478.65L1604.41 2520.65L1604.41 2604.65L1531.66 2646.65L1458.92 2604.65L1458.92 2520.65zM1531.66 2730.65L1604.41 2772.65L1604.41 2856.65L1531.66 2898.65L1458.92 2856.65L1458.92 2772.65zM1604.41 2856.65L1677.16 2898.65L1677.16 2982.65L1604.41 3024.65L1531.66 2982.65L1531.66 2898.65zM1604.41 3108.65L1677.16 3150.65L1677.16 3234.65L1604.41 3276.65L1531.66 3234.65L1531.66 3150.65zM1604.41 3612.65L1677.16 3654.65L1677.16 3738.65L1604.41 3780.65L1531.66 3738.65L1531.66 3654.65zM1531.66 3990.65L1604.41 4032.65L1604.41 4116.65L1531.66 4158.65L1458.92 4116.65L1458.92 4032.65zM1531.66 4242.65L1604.41 4284.65L1604.41 4368.65L1531.66 4410.65L1458.92 4368.65L1458.92 4284.65zM1531.66 4746.65L1604.41 4788.65L1604.41 4872.65L1531.66 4914.65L1458.92 4872.65L1458.92 4788.65zM1749.91 84.65L1822.66 126.65L1822.66 210.65L1749.91 252.65L1677.16 210.65L1677.16 126.65zM1677.16 210.65L1749.91 252.65L1749.91 336.65L1677.16 378.65L1604.41 336.65L1604.41 252.65zM1749.91 588.65L1822.66 630.65L1822.66 714.65L1749.91 756.65L1677.16 714.65L1677.16 630.65zM1749.91 1092.65L1822.66 1134.65L1822.66 1218.65L1749.91 1260.65L1677.16 1218.65L1677.16 1134.65zM1677.16 1218.65L1749.91 1260.65L1749.91 1344.65L1677.16 1386.65L1604.41 1344.65L1604.41 1260.65zM1749.91 1344.65L1822.66 1386.65L1822.66 1470.65L1749.91 1512.65L1677.16 1470.65L1677.16 1386.65zM1749.91 1596.65L1822.66 1638.65L1822.66 1722.65L1749.91 1764.65L1677.16 1722.65L1677.16 1638.65zM1749.91 2604.65L1822.66 2646.65L1822.66 2730.65L1749.91 2772.65L1677.16 2730.65L1677.16 2646.65zM1749.91 2856.65L1822.66 2898.65L1822.66 2982.65L1749.91 3024.65L1677.16 2982.65L1677.16 2898.65zM1677.16 3234.65L1749.91 3276.65L1749.91 3360.65L1677.16 3402.65L1604.41 3360.65L1604.41 3276.65zM1749.91 3360.65L1822.66 3402.65L1822.66 3486.65L1749.91 3528.65L1677.16 3486.65L1677.16 3402.65zM1677.16 3486.65L1749.91 3528.65L1749.91 3612.65L1677.16 3654.65L1604.41 3612.65L1604.41 3528.65zM1749.91 4116.65L1822.66 4158.65L1822.66 4242.65L1749.91 4284.65L1677.16 4242.65L1677.16 4158.65zM1677.16 4242.65L1749.91 4284.65L1749.91 4368.65L1677.16 4410.65L1604.41 4368.65L1604.41 4284.65zM1677.16 4494.65L1749.91 4536.65L1749.91 4620.65L1677.16 4662.65L1604.41 4620.65L1604.41 4536.65zM1749.91 4620.65L1822.66 4662.65L1822.66 4746.65L1749.91 4788.65L1677.16 4746.65L1677.16 4662.65zM1749.91 4872.65L1822.66 4914.65L1822.66 4998.65L1749.91 5040.65L1677.16 4998.65L1677.16 4914.65zM1677.16 4998.65L1749.91 5040.65L1749.91 5124.65L1677.16 5166.65L1604.41 5124.65L1604.41 5040.65zM1822.66 -41.35L1895.4 0.65L1895.4 84.65L1822.66 126.65L1749.91 84.65L1749.91 0.65zM1822.66 210.65L1895.4 252.65L1895.4 336.65L1822.66 378.65L1749.91 336.65L1749.91 252.65zM1895.4 840.65L1968.15 882.65L1968.15 966.65L1895.4 1008.65L1822.66 966.65L1822.66 882.65zM1822.66 966.65L1895.4 1008.65L1895.4 1092.65L1822.66 1134.65L1749.91 1092.65L1749.91 1008.65zM1895.4 1092.65L1968.15 1134.65L1968.15 1218.65L1895.4 1260.65L1822.66 1218.65L1822.66 1134.65zM1895.4 1344.65L1968.15 1386.65L1968.15 1470.65L1895.4 1512.65L1822.66 1470.65L1822.66 1386.65zM1895.4 1596.65L1968.15 1638.65L1968.15 1722.65L1895.4 1764.65L1822.66 1722.65L1822.66 1638.65zM1822.66 1974.65L1895.4 2016.65L1895.4 2100.65L1822.66 2142.65L1749.91 2100.65L1749.91 2016.65zM1822.66 2226.65L1895.4 2268.65L1895.4 2352.65L1822.66 2394.65L1749.91 2352.65L1749.91 2268.65zM1895.4 2352.65L1968.15 2394.65L1968.15 2478.65L1895.4 2520.65L1822.66 2478.65L1822.66 2394.65zM1822.66 2730.65L1895.4 2772.65L1895.4 2856.65L1822.66 2898.65L1749.91 2856.65L1749.91 2772.65zM1895.4 2856.65L1968.15 2898.65L1968.15 2982.65L1895.4 3024.65L1822.66 2982.65L1822.66 2898.65zM1895.4 3360.65L1968.15 3402.65L1968.15 3486.65L1895.4 3528.65L1822.66 3486.65L1822.66 3402.65zM1822.66 3486.65L1895.4 3528.65L1895.4 3612.65L1822.66 3654.65L1749.91 3612.65L1749.91 3528.65zM1822.66 3738.65L1895.4 3780.65L1895.4 3864.65L1822.66 3906.65L1749.91 3864.65L1749.91 3780.65zM1822.66 3990.65L1895.4 4032.65L1895.4 4116.65L1822.66 4158.65L1749.91 4116.65L1749.91 4032.65zM1895.4 4116.65L1968.15 4158.65L1968.15 4242.65L1895.4 4284.65L1822.66 4242.65L1822.66 4158.65zM1895.4 4368.65L1968.15 4410.65L1968.15 4494.65L1895.4 4536.65L1822.66 4494.65L1822.66 4410.65zM1895.4 4872.65L1968.15 4914.65L1968.15 4998.65L1895.4 5040.65L1822.66 4998.65L1822.66 4914.65zM2040.9 84.65L2113.65 126.65L2113.65 210.65L2040.9 252.65L1968.15 210.65L1968.15 126.65zM1968.15 210.65L2040.9 252.65L2040.9 336.65L1968.15 378.65L1895.4 336.65L1895.4 252.65zM2040.9 588.65L2113.65 630.65L2113.65 714.65L2040.9 756.65L1968.15 714.65L1968.15 630.65zM1968.15 714.65L2040.9 756.65L2040.9 840.65L1968.15 882.65L1895.4 840.65L1895.4 756.65zM2040.9 1092.65L2113.65 1134.65L2113.65 1218.65L2040.9 1260.65L1968.15 1218.65L1968.15 1134.65zM1968.15 1218.65L2040.9 1260.65L2040.9 1344.65L1968.15 1386.65L1895.4 1344.65L1895.4 1260.65zM2040.9 1344.65L2113.65 1386.65L2113.65 1470.65L2040.9 1512.65L1968.15 1470.65L1968.15 1386.65zM1968.15 1470.65L2040.9 1512.65L2040.9 1596.65L1968.15 1638.65L1895.4 1596.65L1895.4 1512.65zM2040.9 1848.65L2113.65 1890.65L2113.65 1974.65L2040.9 2016.65L1968.15 1974.65L1968.15 1890.65zM2040.9 2100.65L2113.65 2142.65L2113.65 2226.65L2040.9 2268.65L1968.15 2226.65L1968.15 2142.65zM1968.15 2226.65L2040.9 2268.65L2040.9 2352.65L1968.15 2394.65L1895.4 2352.65L1895.4 2268.65zM1968.15 2478.65L2040.9 2520.65L2040.9 2604.65L1968.15 2646.65L1895.4 2604.65L1895.4 2520.65zM2040.9 2604.65L2113.65 2646.65L2113.65 2730.65L2040.9 2772.65L1968.15 2730.65L1968.15 2646.65zM1968.15 2730.65L2040.9 2772.65L2040.9 2856.65L1968.15 2898.65L1895.4 2856.65L1895.4 2772.65zM2040.9 2856.65L2113.65 2898.65L2113.65 2982.65L2040.9 3024.65L1968.15 2982.65L1968.15 2898.65zM1968.15 2982.65L2040.9 3024.65L2040.9 3108.65L1968.15 3150.65L1895.4 3108.65L1895.4 3024.65zM1968.15 3234.65L2040.9 3276.65L2040.9 3360.65L1968.15 3402.65L1895.4 3360.65L1895.4 3276.65zM2040.9 3360.65L2113.65 3402.65L2113.65 3486.65L2040.9 3528.65L1968.15 3486.65L1968.15 3402.65zM2040.9 3612.65L2113.65 3654.65L2113.65 3738.65L2040.9 3780.65L1968.15 3738.65L1968.15 3654.65zM1968.15 3738.65L2040.9 3780.65L2040.9 3864.65L1968.15 3906.65L1895.4 3864.65L1895.4 3780.65zM2040.9 3864.65L2113.65 3906.65L2113.65 3990.65L2040.9 4032.65L1968.15 3990.65L1968.15 3906.65zM1968.15 3990.65L2040.9 4032.65L2040.9 4116.65L1968.15 4158.65L1895.4 4116.65L1895.4 4032.65zM2040.9 4368.65L2113.65 4410.65L2113.65 4494.65L2040.9 4536.65L1968.15 4494.65L1968.15 4410.65zM2040.9 4620.65L2113.65 4662.65L2113.65 4746.65L2040.9 4788.65L1968.15 4746.65L1968.15 4662.65zM1968.15 4746.65L2040.9 4788.65L2040.9 4872.65L1968.15 4914.65L1895.4 4872.65L1895.4 4788.65zM2040.9 4872.65L2113.65 4914.65L2113.65 4998.65L2040.9 5040.65L1968.15 4998.65L1968.15 4914.65zM2113.65 -41.35L2186.4 0.65L2186.4 84.65L2113.65 126.65L2040.9 84.65L2040.9 0.65zM2113.65 714.65L2186.4 756.65L2186.4 840.65L2113.65 882.65L2040.9 840.65L2040.9 756.65zM2113.65 1470.65L2186.4 1512.65L2186.4 1596.65L2113.65 1638.65L2040.9 1596.65L2040.9 1512.65zM2186.4 1848.65L2259.15 1890.65L2259.15 1974.65L2186.4 2016.65L2113.65 1974.65L2113.65 1890.65zM2186.4 2352.65L2259.15 2394.65L2259.15 2478.65L2186.4 2520.65L2113.65 2478.65L2113.65 2394.65zM2113.65 2478.65L2186.4 2520.65L2186.4 2604.65L2113.65 2646.65L2040.9 2604.65L2040.9 2520.65zM2186.4 2856.65L2259.15 2898.65L2259.15 2982.65L2186.4 3024.65L2113.65 2982.65L2113.65 2898.65zM2113.65 2982.65L2186.4 3024.65L2186.4 3108.65L2113.65 3150.65L2040.9 3108.65L2040.9 3024.65zM2186.4 3108.65L2259.15 3150.65L2259.15 3234.65L2186.4 3276.65L2113.65 3234.65L2113.65 3150.65zM2113.65 3234.65L2186.4 3276.65L2186.4 3360.65L2113.65 3402.65L2040.9 3360.65L2040.9 3276.65zM2186.4 3360.65L2259.15 3402.65L2259.15 3486.65L2186.4 3528.65L2113.65 3486.65L2113.65 3402.65zM2113.65 3486.65L2186.4 3528.65L2186.4 3612.65L2113.65 3654.65L2040.9 3612.65L2040.9 3528.65zM2186.4 3612.65L2259.15 3654.65L2259.15 3738.65L2186.4 3780.65L2113.65 3738.65L2113.65 3654.65zM2186.4 3864.65L2259.15 3906.65L2259.15 3990.65L2186.4 4032.65L2113.65 3990.65L2113.65 3906.65zM2113.65 3990.65L2186.4 4032.65L2186.4 4116.65L2113.65 4158.65L2040.9 4116.65L2040.9 4032.65zM2113.65 4242.65L2186.4 4284.65L2186.4 4368.65L2113.65 4410.65L2040.9 4368.65L2040.9 4284.65zM2186.4 4368.65L2259.15 4410.65L2259.15 4494.65L2186.4 4536.65L2113.65 4494.65L2113.65 4410.65zM2113.65 4494.65L2186.4 4536.65L2186.4 4620.65L2113.65 4662.65L2040.9 4620.65L2040.9 4536.65zM2186.4 4872.65L2259.15 4914.65L2259.15 4998.65L2186.4 5040.65L2113.65 4998.65L2113.65 4914.65zM2331.89 840.65L2404.64 882.65L2404.64 966.65L2331.89 1008.65L2259.15 966.65L2259.15 882.65zM2259.15 1218.65L2331.89 1260.65L2331.89 1344.65L2259.15 1386.65L2186.4 1344.65L2186.4 1260.65zM2259.15 1470.65L2331.89 1512.65L2331.89 1596.65L2259.15 1638.65L2186.4 1596.65L2186.4 1512.65zM2331.89 1596.65L2404.64 1638.65L2404.64 1722.65L2331.89 1764.65L2259.15 1722.65L2259.15 1638.65zM2331.89 2100.65L2404.64 2142.65L2404.64 2226.65L2331.89 2268.65L2259.15 2226.65L2259.15 2142.65zM2259.15 2226.65L2331.89 2268.65L2331.89 2352.65L2259.15 2394.65L2186.4 2352.65L2186.4 2268.65zM2259.15 2478.65L2331.89 2520.65L2331.89 2604.65L2259.15 2646.65L2186.4 2604.65L2186.4 2520.65zM2331.89 2604.65L2404.64 2646.65L2404.64 2730.65L2331.89 2772.65L2259.15 2730.65L2259.15 2646.65zM2259.15 2730.65L2331.89 2772.65L2331.89 2856.65L2259.15 2898.65L2186.4 2856.65L2186.4 2772.65zM2259.15 2982.65L2331.89 3024.65L2331.89 3108.65L2259.15 3150.65L2186.4 3108.65L2186.4 3024.65zM2259.15 3486.65L2331.89 3528.65L2331.89 3612.65L2259.15 3654.65L2186.4 3612.65L2186.4 3528.65zM2331.89 3612.65L2404.64 3654.65L2404.64 3738.65L2331.89 3780.65L2259.15 3738.65L2259.15 3654.65zM2259.15 3990.65L2331.89 4032.65L2331.89 4116.65L2259.15 4158.65L2186.4 4116.65L2186.4 4032.65zM2331.89 4116.65L2404.64 4158.65L2404.64 4242.65L2331.89 4284.65L2259.15 4242.65L2259.15 4158.65zM2259.15 4242.65L2331.89 4284.65L2331.89 4368.65L2259.15 4410.65L2186.4 4368.65L2186.4 4284.65zM2259.15 4494.65L2331.89 4536.65L2331.89 4620.65L2259.15 4662.65L2186.4 4620.65L2186.4 4536.65zM2331.89 4620.65L2404.64 4662.65L2404.64 4746.65L2331.89 4788.65L2259.15 4746.65L2259.15 4662.65zM2259.15 4746.65L2331.89 4788.65L2331.89 4872.65L2259.15 4914.65L2186.4 4872.65L2186.4 4788.65zM2477.39 336.65L2550.14 378.65L2550.14 462.65L2477.39 504.65L2404.64 462.65L2404.64 378.65zM2404.64 462.65L2477.39 504.65L2477.39 588.65L2404.64 630.65L2331.89 588.65L2331.89 504.65zM2477.39 588.65L2550.14 630.65L2550.14 714.65L2477.39 756.65L2404.64 714.65L2404.64 630.65zM2477.39 840.65L2550.14 882.65L2550.14 966.65L2477.39 1008.65L2404.64 966.65L2404.64 882.65zM2404.64 966.65L2477.39 1008.65L2477.39 1092.65L2404.64 1134.65L2331.89 1092.65L2331.89 1008.65zM2477.39 1596.65L2550.14 1638.65L2550.14 1722.65L2477.39 1764.65L2404.64 1722.65L2404.64 1638.65zM2404.64 1974.65L2477.39 2016.65L2477.39 2100.65L2404.64 2142.65L2331.89 2100.65L2331.89 2016.65zM2477.39 2100.65L2550.14 2142.65L2550.14 2226.65L2477.39 2268.65L2404.64 2226.65L2404.64 2142.65zM2477.39 2352.65L2550.14 2394.65L2550.14 2478.65L2477.39 2520.65L2404.64 2478.65L2404.64 2394.65zM2477.39 2604.65L2550.14 2646.65L2550.14 2730.65L2477.39 2772.65L2404.64 2730.65L2404.64 2646.65zM2404.64 2730.65L2477.39 2772.65L2477.39 2856.65L2404.64 2898.65L2331.89 2856.65L2331.89 2772.65zM2477.39 2856.65L2550.14 2898.65L2550.14 2982.65L2477.39 3024.65L2404.64 2982.65L2404.64 2898.65zM2404.64 2982.65L2477.39 3024.65L2477.39 3108.65L2404.64 3150.65L2331.89 3108.65L2331.89 3024.65zM2404.64 3234.65L2477.39 3276.65L2477.39 3360.65L2404.64 3402.65L2331.89 3360.65L2331.89 3276.65zM2477.39 3360.65L2550.14 3402.65L2550.14 3486.65L2477.39 3528.65L2404.64 3486.65L2404.64 3402.65zM2404.64 3738.65L2477.39 3780.65L2477.39 3864.65L2404.64 3906.65L2331.89 3864.65L2331.89 3780.65zM2477.39 3864.65L2550.14 3906.65L2550.14 3990.65L2477.39 4032.65L2404.64 3990.65L2404.64 3906.65zM2477.39 4116.65L2550.14 4158.65L2550.14 4242.65L2477.39 4284.65L2404.64 4242.65L2404.64 4158.65zM2404.64 4494.65L2477.39 4536.65L2477.39 4620.65L2404.64 4662.65L2331.89 4620.65L2331.89 4536.65zM2404.64 4998.65L2477.39 5040.65L2477.39 5124.65L2404.64 5166.65L2331.89 5124.65L2331.89 5040.65zM2550.14 -41.35L2622.89 0.65L2622.89 84.65L2550.14 126.65L2477.39 84.65L2477.39 0.65zM2550.14 210.65L2622.89 252.65L2622.89 336.65L2550.14 378.65L2477.39 336.65L2477.39 252.65zM2622.89 336.65L2695.64 378.65L2695.64 462.65L2622.89 504.65L2550.14 462.65L2550.14 378.65zM2550.14 462.65L2622.89 504.65L2622.89 588.65L2550.14 630.65L2477.39 588.65L2477.39 504.65zM2622.89 588.65L2695.64 630.65L2695.64 714.65L2622.89 756.65L2550.14 714.65L2550.14 630.65zM2622.89 1344.65L2695.64 1386.65L2695.64 1470.65L2622.89 1512.65L2550.14 1470.65L2550.14 1386.65zM2622.89 1596.65L2695.64 1638.65L2695.64 1722.65L2622.89 1764.65L2550.14 1722.65L2550.14 1638.65zM2622.89 1848.65L2695.64 1890.65L2695.64 1974.65L2622.89 2016.65L2550.14 1974.65L2550.14 1890.65zM2550.14 1974.65L2622.89 2016.65L2622.89 2100.65L2550.14 2142.65L2477.39 2100.65L2477.39 2016.65zM2622.89 2604.65L2695.64 2646.65L2695.64 2730.65L2622.89 2772.65L2550.14 2730.65L2550.14 2646.65zM2622.89 3108.65L2695.64 3150.65L2695.64 3234.65L2622.89 3276.65L2550.14 3234.65L2550.14 3150.65zM2550.14 3738.65L2622.89 3780.65L2622.89 3864.65L2550.14 3906.65L2477.39 3864.65L2477.39 3780.65zM2622.89 3864.65L2695.64 3906.65L2695.64 3990.65L2622.89 4032.65L2550.14 3990.65L2550.14 3906.65zM2550.14 4242.65L2622.89 4284.65L2622.89 4368.65L2550.14 4410.65L2477.39 4368.65L2477.39 4284.65zM2622.89 4368.65L2695.64 4410.65L2695.64 4494.65L2622.89 4536.65L2550.14 4494.65L2550.14 4410.65zM2550.14 4494.65L2622.89 4536.65L2622.89 4620.65L2550.14 4662.65L2477.39 4620.65L2477.39 4536.65zM2622.89 4620.65L2695.64 4662.65L2695.64 4746.65L2622.89 4788.65L2550.14 4746.65L2550.14 4662.65zM2550.14 4998.65L2622.89 5040.65L2622.89 5124.65L2550.14 5166.65L2477.39 5124.65L2477.39 5040.65zM2768.38 588.65L2841.13 630.65L2841.13 714.65L2768.38 756.65L2695.64 714.65L2695.64 630.65zM2695.64 714.65L2768.38 756.65L2768.38 840.65L2695.64 882.65L2622.89 840.65L2622.89 756.65zM2768.38 840.65L2841.13 882.65L2841.13 966.65L2768.38 1008.65L2695.64 966.65L2695.64 882.65zM2768.38 1092.65L2841.13 1134.65L2841.13 1218.65L2768.38 1260.65L2695.64 1218.65L2695.64 1134.65zM2695.64 1218.65L2768.38 1260.65L2768.38 1344.65L2695.64 1386.65L2622.89 1344.65L2622.89 1260.65zM2768.38 1344.65L2841.13 1386.65L2841.13 1470.65L2768.38 1512.65L2695.64 1470.65L2695.64 1386.65zM2695.64 1974.65L2768.38 2016.65L2768.38 2100.65L2695.64 2142.65L2622.89 2100.65L2622.89 2016.65zM2695.64 2226.65L2768.38 2268.65L2768.38 2352.65L2695.64 2394.65L2622.89 2352.65L2622.89 2268.65zM2768.38 2352.65L2841.13 2394.65L2841.13 2478.65L2768.38 2520.65L2695.64 2478.65L2695.64 2394.65zM2695.64 2478.65L2768.38 2520.65L2768.38 2604.65L2695.64 2646.65L2622.89 2604.65L2622.89 2520.65zM2695.64 2730.65L2768.38 2772.65L2768.38 2856.65L2695.64 2898.65L2622.89 2856.65L2622.89 2772.65zM2768.38 2856.65L2841.13 2898.65L2841.13 2982.65L2768.38 3024.65L2695.64 2982.65L2695.64 2898.65zM2768.38 3108.65L2841.13 3150.65L2841.13 3234.65L2768.38 3276.65L2695.64 3234.65L2695.64 3150.65zM2695.64 3486.65L2768.38 3528.65L2768.38 3612.65L2695.64 3654.65L2622.89 3612.65L2622.89 3528.65zM2768.38 3864.65L2841.13 3906.65L2841.13 3990.65L2768.38 4032.65L2695.64 3990.65L2695.64 3906.65zM2768.38 4116.65L2841.13 4158.65L2841.13 4242.65L2768.38 4284.65L2695.64 4242.65L2695.64 4158.65zM2913.88 84.65L2986.63 126.65L2986.63 210.65L2913.88 252.65L2841.13 210.65L2841.13 126.65zM2841.13 462.65L2913.88 504.65L2913.88 588.65L2841.13 630.65L2768.38 588.65L2768.38 504.65zM2913.88 1092.65L2986.63 1134.65L2986.63 1218.65L2913.88 1260.65L2841.13 1218.65L2841.13 1134.65zM2841.13 1218.65L2913.88 1260.65L2913.88 1344.65L2841.13 1386.65L2768.38 1344.65L2768.38 1260.65zM2913.88 1344.65L2986.63 1386.65L2986.63 1470.65L2913.88 1512.65L2841.13 1470.65L2841.13 1386.65zM2841.13 1470.65L2913.88 1512.65L2913.88 1596.65L2841.13 1638.65L2768.38 1596.65L2768.38 1512.65zM2913.88 1596.65L2986.63 1638.65L2986.63 1722.65L2913.88 1764.65L2841.13 1722.65L2841.13 1638.65zM2913.88 1848.65L2986.63 1890.65L2986.63 1974.65L2913.88 2016.65L2841.13 1974.65L2841.13 1890.65zM2913.88 2100.65L2986.63 2142.65L2986.63 2226.65L2913.88 2268.65L2841.13 2226.65L2841.13 2142.65zM2841.13 2226.65L2913.88 2268.65L2913.88 2352.65L2841.13 2394.65L2768.38 2352.65L2768.38 2268.65zM2841.13 2730.65L2913.88 2772.65L2913.88 2856.65L2841.13 2898.65L2768.38 2856.65L2768.38 2772.65zM2841.13 2982.65L2913.88 3024.65L2913.88 3108.65L2841.13 3150.65L2768.38 3108.65L2768.38 3024.65zM2913.88 3108.65L2986.63 3150.65L2986.63 3234.65L2913.88 3276.65L2841.13 3234.65L2841.13 3150.65zM2841.13 3486.65L2913.88 3528.65L2913.88 3612.65L2841.13 3654.65L2768.38 3612.65L2768.38 3528.65zM2841.13 3738.65L2913.88 3780.65L2913.88 3864.65L2841.13 3906.65L2768.38 3864.65L2768.38 3780.65zM2841.13 3990.65L2913.88 4032.65L2913.88 4116.65L2841.13 4158.65L2768.38 4116.65L2768.38 4032.65zM2913.88 4116.65L2986.63 4158.65L2986.63 4242.65L2913.88 4284.65L2841.13 4242.65L2841.13 4158.65zM2841.13 4746.65L2913.88 4788.65L2913.88 4872.65L2841.13 4914.65L2768.38 4872.65L2768.38 4788.65zM2841.13 4998.65L2913.88 5040.65L2913.88 5124.65L2841.13 5166.65L2768.38 5124.65L2768.38 5040.65zM2986.63 -41.35L3059.38 0.65L3059.38 84.65L2986.63 126.65L2913.88 84.65L2913.88 0.65zM3059.38 84.65L3132.12 126.65L3132.12 210.65L3059.38 252.65L2986.63 210.65L2986.63 126.65zM2986.63 462.65L3059.38 504.65L3059.38 588.65L2986.63 630.65L2913.88 588.65L2913.88 504.65zM2986.63 714.65L3059.38 756.65L3059.38 840.65L2986.63 882.65L2913.88 840.65L2913.88 756.65zM2986.63 966.65L3059.38 1008.65L3059.38 1092.65L2986.63 1134.65L2913.88 1092.65L2913.88 1008.65zM3059.38 1092.65L3132.12 1134.65L3132.12 1218.65L3059.38 1260.65L2986.63 1218.65L2986.63 1134.65zM2986.63 1218.65L3059.38 1260.65L3059.38 1344.65L2986.63 1386.65L2913.88 1344.65L2913.88 1260.65zM3059.38 1848.65L3132.12 1890.65L3132.12 1974.65L3059.38 2016.65L2986.63 1974.65L2986.63 1890.65zM3059.38 2100.65L3132.12 2142.65L3132.12 2226.65L3059.38 2268.65L2986.63 2226.65L2986.63 2142.65zM2986.63 2226.65L3059.38 2268.65L3059.38 2352.65L2986.63 2394.65L2913.88 2352.65L2913.88 2268.65zM3059.38 2604.65L3132.12 2646.65L3132.12 2730.65L3059.38 2772.65L2986.63 2730.65L2986.63 2646.65zM3059.38 3108.65L3132.12 3150.65L3132.12 3234.65L3059.38 3276.65L2986.63 3234.65L2986.63 3150.65zM2986.63 3234.65L3059.38 3276.65L3059.38 3360.65L2986.63 3402.65L2913.88 3360.65L2913.88 3276.65zM3059.38 3360.65L3132.12 3402.65L3132.12 3486.65L3059.38 3528.65L2986.63 3486.65L2986.63 3402.65zM3059.38 3612.65L3132.12 3654.65L3132.12 3738.65L3059.38 3780.65L2986.63 3738.65L2986.63 3654.65zM2986.63 3990.65L3059.38 4032.65L3059.38 4116.65L2986.63 4158.65L2913.88 4116.65L2913.88 4032.65zM3059.38 4116.65L3132.12 4158.65L3132.12 4242.65L3059.38 4284.65L2986.63 4242.65L2986.63 4158.65zM2986.63 4494.65L3059.38 4536.65L3059.38 4620.65L2986.63 4662.65L2913.88 4620.65L2913.88 4536.65zM2986.63 4746.65L3059.38 4788.65L3059.38 4872.65L2986.63 4914.65L2913.88 4872.65L2913.88 4788.65zM3059.38 4872.65L3132.12 4914.65L3132.12 4998.65L3059.38 5040.65L2986.63 4998.65L2986.63 4914.65zM2986.63 4998.65L3059.38 5040.65L3059.38 5124.65L2986.63 5166.65L2913.88 5124.65L2913.88 5040.65zM3132.12 -41.35L3204.87 0.65L3204.87 84.65L3132.12 126.65L3059.38 84.65L3059.38 0.65zM3204.87 84.65L3277.62 126.65L3277.62 210.65L3204.87 252.65L3132.12 210.65L3132.12 126.65zM3132.12 210.65L3204.87 252.65L3204.87 336.65L3132.12 378.65L3059.38 336.65L3059.38 252.65zM3204.87 840.65L3277.62 882.65L3277.62 966.65L3204.87 1008.65L3132.12 966.65L3132.12 882.65zM3132.12 966.65L3204.87 1008.65L3204.87 1092.65L3132.12 1134.65L3059.38 1092.65L3059.38 1008.65zM3204.87 1092.65L3277.62 1134.65L3277.62 1218.65L3204.87 1260.65L3132.12 1218.65L3132.12 1134.65zM3132.12 1218.65L3204.87 1260.65L3204.87 1344.65L3132.12 1386.65L3059.38 1344.65L3059.38 1260.65zM3132.12 1470.65L3204.87 1512.65L3204.87 1596.65L3132.12 1638.65L3059.38 1596.65L3059.38 1512.65zM3204.87 1596.65L3277.62 1638.65L3277.62 1722.65L3204.87 1764.65L3132.12 1722.65L3132.12 1638.65zM3204.87 1848.65L3277.62 1890.65L3277.62 1974.65L3204.87 2016.65L3132.12 1974.65L3132.12 1890.65zM3204.87 2100.65L3277.62 2142.65L3277.62 2226.65L3204.87 2268.65L3132.12 2226.65L3132.12 2142.65zM3132.12 2478.65L3204.87 2520.65L3204.87 2604.65L3132.12 2646.65L3059.38 2604.65L3059.38 2520.65zM3204.87 2604.65L3277.62 2646.65L3277.62 2730.65L3204.87 2772.65L3132.12 2730.65L3132.12 2646.65zM3204.87 2856.65L3277.62 2898.65L3277.62 2982.65L3204.87 3024.65L3132.12 2982.65L3132.12 2898.65zM3132.12 2982.65L3204.87 3024.65L3204.87 3108.65L3132.12 3150.65L3059.38 3108.65L3059.38 3024.65zM3204.87 3108.65L3277.62 3150.65L3277.62 3234.65L3204.87 3276.65L3132.12 3234.65L3132.12 3150.65zM3204.87 3360.65L3277.62 3402.65L3277.62 3486.65L3204.87 3528.65L3132.12 3486.65L3132.12 3402.65zM3132.12 3486.65L3204.87 3528.65L3204.87 3612.65L3132.12 3654.65L3059.38 3612.65L3059.38 3528.65zM3204.87 3612.65L3277.62 3654.65L3277.62 3738.65L3204.87 3780.65L3132.12 3738.65L3132.12 3654.65zM3204.87 3864.65L3277.62 3906.65L3277.62 3990.65L3204.87 4032.65L3132.12 3990.65L3132.12 3906.65zM3132.12 3990.65L3204.87 4032.65L3204.87 4116.65L3132.12 4158.65L3059.38 4116.65L3059.38 4032.65zM3132.12 4242.65L3204.87 4284.65L3204.87 4368.65L3132.12 4410.65L3059.38 4368.65L3059.38 4284.65zM3132.12 4494.65L3204.87 4536.65L3204.87 4620.65L3132.12 4662.65L3059.38 4620.65L3059.38 4536.65zM3204.87 4620.65L3277.62 4662.65L3277.62 4746.65L3204.87 4788.65L3132.12 4746.65L3132.12 4662.65zM3132.12 4746.65L3204.87 4788.65L3204.87 4872.65L3132.12 4914.65L3059.38 4872.65L3059.38 4788.65zM3204.87 4872.65L3277.62 4914.65L3277.62 4998.65L3204.87 5040.65L3132.12 4998.65L3132.12 4914.65zM3132.12 4998.65L3204.87 5040.65L3204.87 5124.65L3132.12 5166.65L3059.38 5124.65L3059.38 5040.65zM3277.62 -41.35L3350.37 0.65L3350.37 84.65L3277.62 126.65L3204.87 84.65L3204.87 0.65zM3350.37 588.65L3423.12 630.65L3423.12 714.65L3350.37 756.65L3277.62 714.65L3277.62 630.65zM3277.62 714.65L3350.37 756.65L3350.37 840.65L3277.62 882.65L3204.87 840.65L3204.87 756.65zM3350.37 840.65L3423.12 882.65L3423.12 966.65L3350.37 1008.65L3277.62 966.65L3277.62 882.65zM3350.37 1092.65L3423.12 1134.65L3423.12 1218.65L3350.37 1260.65L3277.62 1218.65L3277.62 1134.65zM3277.62 1470.65L3350.37 1512.65L3350.37 1596.65L3277.62 1638.65L3204.87 1596.65L3204.87 1512.65zM3277.62 1974.65L3350.37 2016.65L3350.37 2100.65L3277.62 2142.65L3204.87 2100.65L3204.87 2016.65zM3350.37 2100.65L3423.12 2142.65L3423.12 2226.65L3350.37 2268.65L3277.62 2226.65L3277.62 2142.65zM3277.62 2730.65L3350.37 2772.65L3350.37 2856.65L3277.62 2898.65L3204.87 2856.65L3204.87 2772.65zM3350.37 2856.65L3423.12 2898.65L3423.12 2982.65L3350.37 3024.65L3277.62 2982.65L3277.62 2898.65zM3350.37 3360.65L3423.12 3402.65L3423.12 3486.65L3350.37 3528.65L3277.62 3486.65L3277.62 3402.65zM3350.37 3612.65L3423.12 3654.65L3423.12 3738.65L3350.37 3780.65L3277.62 3738.65L3277.62 3654.65zM3277.62 3738.65L3350.37 3780.65L3350.37 3864.65L3277.62 3906.65L3204.87 3864.65L3204.87 3780.65zM3277.62 3990.65L3350.37 4032.65L3350.37 4116.65L3277.62 4158.65L3204.87 4116.65L3204.87 4032.65zM3350.37 4116.65L3423.12 4158.65L3423.12 4242.65L3350.37 4284.65L3277.62 4242.65L3277.62 4158.65zM3350.37 4368.65L3423.12 4410.65L3423.12 4494.65L3350.37 4536.65L3277.62 4494.65L3277.62 4410.65zM3277.62 4494.65L3350.37 4536.65L3350.37 4620.65L3277.62 4662.65L3204.87 4620.65L3204.87 4536.65zM3350.37 4620.65L3423.12 4662.65L3423.12 4746.65L3350.37 4788.65L3277.62 4746.65L3277.62 4662.65zM3277.62 4746.65L3350.37 4788.65L3350.37 4872.65L3277.62 4914.65L3204.87 4872.65L3204.87 4788.65zM3277.62 4998.65L3350.37 5040.65L3350.37 5124.65L3277.62 5166.65L3204.87 5124.65L3204.87 5040.65zM3495.87 84.65L3568.61 126.65L3568.61 210.65L3495.87 252.65L3423.12 210.65L3423.12 126.65zM3423.12 462.65L3495.87 504.65L3495.87 588.65L3423.12 630.65L3350.37 588.65L3350.37 504.65zM3423.12 1218.65L3495.87 1260.65L3495.87 1344.65L3423.12 1386.65L3350.37 1344.65L3350.37 1260.65zM3495.87 1344.65L3568.61 1386.65L3568.61 1470.65L3495.87 1512.65L3423.12 1470.65L3423.12 1386.65zM3423.12 1470.65L3495.87 1512.65L3495.87 1596.65L3423.12 1638.65L3350.37 1596.65L3350.37 1512.65zM3495.87 1596.65L3568.61 1638.65L3568.61 1722.65L3495.87 1764.65L3423.12 1722.65L3423.12 1638.65zM3423.12 1722.65L3495.87 1764.65L3495.87 1848.65L3423.12 1890.65L3350.37 1848.65L3350.37 1764.65zM3423.12 1974.65L3495.87 2016.65L3495.87 2100.65L3423.12 2142.65L3350.37 2100.65L3350.37 2016.65zM3495.87 2100.65L3568.61 2142.65L3568.61 2226.65L3495.87 2268.65L3423.12 2226.65L3423.12 2142.65zM3495.87 2604.65L3568.61 2646.65L3568.61 2730.65L3495.87 2772.65L3423.12 2730.65L3423.12 2646.65zM3423.12 2730.65L3495.87 2772.65L3495.87 2856.65L3423.12 2898.65L3350.37 2856.65L3350.37 2772.65zM3495.87 2856.65L3568.61 2898.65L3568.61 2982.65L3495.87 3024.65L3423.12 2982.65L3423.12 2898.65zM3495.87 3108.65L3568.61 3150.65L3568.61 3234.65L3495.87 3276.65L3423.12 3234.65L3423.12 3150.65zM3423.12 3738.65L3495.87 3780.65L3495.87 3864.65L3423.12 3906.65L3350.37 3864.65L3350.37 3780.65zM3495.87 3864.65L3568.61 3906.65L3568.61 3990.65L3495.87 4032.65L3423.12 3990.65L3423.12 3906.65zM3495.87 4116.65L3568.61 4158.65L3568.61 4242.65L3495.87 4284.65L3423.12 4242.65L3423.12 4158.65zM3495.87 4620.65L3568.61 4662.65L3568.61 4746.65L3495.87 4788.65L3423.12 4746.65L3423.12 4662.65zM3423.12 4746.65L3495.87 4788.65L3495.87 4872.65L3423.12 4914.65L3350.37 4872.65L3350.37 4788.65zM3423.12 4998.65L3495.87 5040.65L3495.87 5124.65L3423.12 5166.65L3350.37 5124.65L3350.37 5040.65zM3641.36 84.65L3714.11 126.65L3714.11 210.65L3641.36 252.65L3568.61 210.65L3568.61 126.65zM3641.36 336.65L3714.11 378.65L3714.11 462.65L3641.36 504.65L3568.61 462.65L3568.61 378.65zM3568.61 714.65L3641.36 756.65L3641.36 840.65L3568.61 882.65L3495.87 840.65L3495.87 756.65zM3641.36 840.65L3714.11 882.65L3714.11 966.65L3641.36 1008.65L3568.61 966.65L3568.61 882.65zM3568.61 966.65L3641.36 1008.65L3641.36 1092.65L3568.61 1134.65L3495.87 1092.65L3495.87 1008.65zM3568.61 1218.65L3641.36 1260.65L3641.36 1344.65L3568.61 1386.65L3495.87 1344.65L3495.87 1260.65zM3641.36 1848.65L3714.11 1890.65L3714.11 1974.65L3641.36 2016.65L3568.61 1974.65L3568.61 1890.65zM3641.36 2352.65L3714.11 2394.65L3714.11 2478.65L3641.36 2520.65L3568.61 2478.65L3568.61 2394.65zM3641.36 2604.65L3714.11 2646.65L3714.11 2730.65L3641.36 2772.65L3568.61 2730.65L3568.61 2646.65zM3568.61 2982.65L3641.36 3024.65L3641.36 3108.65L3568.61 3150.65L3495.87 3108.65L3495.87 3024.65zM3641.36 3108.65L3714.11 3150.65L3714.11 3234.65L3641.36 3276.65L3568.61 3234.65L3568.61 3150.65zM3641.36 3360.65L3714.11 3402.65L3714.11 3486.65L3641.36 3528.65L3568.61 3486.65L3568.61 3402.65zM3568.61 3486.65L3641.36 3528.65L3641.36 3612.65L3568.61 3654.65L3495.87 3612.65L3495.87 3528.65zM3641.36 3612.65L3714.11 3654.65L3714.11 3738.65L3641.36 3780.65L3568.61 3738.65L3568.61 3654.65zM3568.61 3738.65L3641.36 3780.65L3641.36 3864.65L3568.61 3906.65L3495.87 3864.65L3495.87 3780.65zM3641.36 3864.65L3714.11 3906.65L3714.11 3990.65L3641.36 4032.65L3568.61 3990.65L3568.61 3906.65zM3641.36 4116.65L3714.11 4158.65L3714.11 4242.65L3641.36 4284.65L3568.61 4242.65L3568.61 4158.65zM3641.36 4368.65L3714.11 4410.65L3714.11 4494.65L3641.36 4536.65L3568.61 4494.65L3568.61 4410.65zM3641.36 4620.65L3714.11 4662.65L3714.11 4746.65L3641.36 4788.65L3568.61 4746.65L3568.61 4662.65zM3568.61 4746.65L3641.36 4788.65L3641.36 4872.65L3568.61 4914.65L3495.87 4872.65L3495.87 4788.65zM3641.36 4872.65L3714.11 4914.65L3714.11 4998.65L3641.36 5040.65L3568.61 4998.65L3568.61 4914.65zM3714.11 -41.35L3786.86 0.65L3786.86 84.65L3714.11 126.65L3641.36 84.65L3641.36 0.65zM3714.11 210.65L3786.86 252.65L3786.86 336.65L3714.11 378.65L3641.36 336.65L3641.36 252.65zM3786.86 336.65L3859.61 378.65L3859.61 462.65L3786.86 504.65L3714.11 462.65L3714.11 378.65zM3714.11 462.65L3786.86 504.65L3786.86 588.65L3714.11 630.65L3641.36 588.65L3641.36 504.65zM3786.86 588.65L3859.61 630.65L3859.61 714.65L3786.86 756.65L3714.11 714.65L3714.11 630.65zM3714.11 714.65L3786.86 756.65L3786.86 840.65L3714.11 882.65L3641.36 840.65L3641.36 756.65zM3714.11 966.65L3786.86 1008.65L3786.86 1092.65L3714.11 1134.65L3641.36 1092.65L3641.36 1008.65zM3786.86 1848.65L3859.61 1890.65L3859.61 1974.65L3786.86 2016.65L3714.11 1974.65L3714.11 1890.65zM3786.86 2100.65L3859.61 2142.65L3859.61 2226.65L3786.86 2268.65L3714.11 2226.65L3714.11 2142.65zM3714.11 2226.65L3786.86 2268.65L3786.86 2352.65L3714.11 2394.65L3641.36 2352.65L3641.36 2268.65zM3714.11 2478.65L3786.86 2520.65L3786.86 2604.65L3714.11 2646.65L3641.36 2604.65L3641.36 2520.65zM3786.86 2604.65L3859.61 2646.65L3859.61 2730.65L3786.86 2772.65L3714.11 2730.65L3714.11 2646.65zM3714.11 2730.65L3786.86 2772.65L3786.86 2856.65L3714.11 2898.65L3641.36 2856.65L3641.36 2772.65zM3786.86 3108.65L3859.61 3150.65L3859.61 3234.65L3786.86 3276.65L3714.11 3234.65L3714.11 3150.65zM3786.86 3360.65L3859.61 3402.65L3859.61 3486.65L3786.86 3528.65L3714.11 3486.65L3714.11 3402.65zM3786.86 3612.65L3859.61 3654.65L3859.61 3738.65L3786.86 3780.65L3714.11 3738.65L3714.11 3654.65zM3714.11 3738.65L3786.86 3780.65L3786.86 3864.65L3714.11 3906.65L3641.36 3864.65L3641.36 3780.65zM3714.11 4242.65L3786.86 4284.65L3786.86 4368.65L3714.11 4410.65L3641.36 4368.65L3641.36 4284.65zM3714.11 4494.65L3786.86 4536.65L3786.86 4620.65L3714.11 4662.65L3641.36 4620.65L3641.36 4536.65zM3786.86 4620.65L3859.61 4662.65L3859.61 4746.65L3786.86 4788.65L3714.11 4746.65L3714.11 4662.65zM3714.11 4746.65L3786.86 4788.65L3786.86 4872.65L3714.11 4914.65L3641.36 4872.65L3641.36 4788.65zM3786.86 4872.65L3859.61 4914.65L3859.61 4998.65L3786.86 5040.65L3714.11 4998.65L3714.11 4914.65zM3932.35 336.65L4005.1 378.65L4005.1 462.65L3932.35 504.65L3859.61 462.65L3859.61 378.65zM3859.61 714.65L3932.35 756.65L3932.35 840.65L3859.61 882.65L3786.86 840.65L3786.86 756.65zM3859.61 966.65L3932.35 1008.65L3932.35 1092.65L3859.61 1134.65L3786.86 1092.65L3786.86 1008.65zM3859.61 1218.65L3932.35 1260.65L3932.35 1344.65L3859.61 1386.65L3786.86 1344.65L3786.86 1260.65zM3932.35 1344.65L4005.1 1386.65L4005.1 1470.65L3932.35 1512.65L3859.61 1470.65L3859.61 1386.65zM3859.61 1470.65L3932.35 1512.65L3932.35 1596.65L3859.61 1638.65L3786.86 1596.65L3786.86 1512.65zM3932.35 1596.65L4005.1 1638.65L4005.1 1722.65L3932.35 1764.65L3859.61 1722.65L3859.61 1638.65zM3932.35 2100.65L4005.1 2142.65L4005.1 2226.65L3932.35 2268.65L3859.61 2226.65L3859.61 2142.65zM3859.61 2226.65L3932.35 2268.65L3932.35 2352.65L3859.61 2394.65L3786.86 2352.65L3786.86 2268.65zM3932.35 2352.65L4005.1 2394.65L4005.1 2478.65L3932.35 2520.65L3859.61 2478.65L3859.61 2394.65zM3932.35 2604.65L4005.1 2646.65L4005.1 2730.65L3932.35 2772.65L3859.61 2730.65L3859.61 2646.65zM3932.35 2856.65L4005.1 2898.65L4005.1 2982.65L3932.35 3024.65L3859.61 2982.65L3859.61 2898.65zM3932.35 3108.65L4005.1 3150.65L4005.1 3234.65L3932.35 3276.65L3859.61 3234.65L3859.61 3150.65zM3859.61 3234.65L3932.35 3276.65L3932.35 3360.65L3859.61 3402.65L3786.86 3360.65L3786.86 3276.65zM3932.35 3360.65L4005.1 3402.65L4005.1 3486.65L3932.35 3528.65L3859.61 3486.65L3859.61 3402.65zM3932.35 3612.65L4005.1 3654.65L4005.1 3738.65L3932.35 3780.65L3859.61 3738.65L3859.61 3654.65zM3932.35 3864.65L4005.1 3906.65L4005.1 3990.65L3932.35 4032.65L3859.61 3990.65L3859.61 3906.65zM3859.61 3990.65L3932.35 4032.65L3932.35 4116.65L3859.61 4158.65L3786.86 4116.65L3786.86 4032.65zM3859.61 4242.65L3932.35 4284.65L3932.35 4368.65L3859.61 4410.65L3786.86 4368.65L3786.86 4284.65zM3932.35 4620.65L4005.1 4662.65L4005.1 4746.65L3932.35 4788.65L3859.61 4746.65L3859.61 4662.65zM3859.61 4746.65L3932.35 4788.65L3932.35 4872.65L3859.61 4914.65L3786.86 4872.65L3786.86 4788.65zM3859.61 4998.65L3932.35 5040.65L3932.35 5124.65L3859.61 5166.65L3786.86 5124.65L3786.86 5040.65zM4077.85 336.65L4150.6 378.65L4150.6 462.65L4077.85 504.65L4005.1 462.65L4005.1 378.65zM4005.1 462.65L4077.85 504.65L4077.85 588.65L4005.1 630.65L3932.35 588.65L3932.35 504.65zM4005.1 714.65L4077.85 756.65L4077.85 840.65L4005.1 882.65L3932.35 840.65L3932.35 756.65zM4077.85 840.65L4150.6 882.65L4150.6 966.65L4077.85 1008.65L4005.1 966.65L4005.1 882.65zM4005.1 966.65L4077.85 1008.65L4077.85 1092.65L4005.1 1134.65L3932.35 1092.65L3932.35 1008.65zM4077.85 1344.65L4150.6 1386.65L4150.6 1470.65L4077.85 1512.65L4005.1 1470.65L4005.1 1386.65zM4005.1 1470.65L4077.85 1512.65L4077.85 1596.65L4005.1 1638.65L3932.35 1596.65L3932.35 1512.65zM4077.85 1848.65L4150.6 1890.65L4150.6 1974.65L4077.85 2016.65L4005.1 1974.65L4005.1 1890.65zM4077.85 2100.65L4150.6 2142.65L4150.6 2226.65L4077.85 2268.65L4005.1 2226.65L4005.1 2142.65zM4005.1 2226.65L4077.85 2268.65L4077.85 2352.65L4005.1 2394.65L3932.35 2352.65L3932.35 2268.65zM4005.1 2730.65L4077.85 2772.65L4077.85 2856.65L4005.1 2898.65L3932.35 2856.65L3932.35 2772.65zM4005.1 3486.65L4077.85 3528.65L4077.85 3612.65L4005.1 3654.65L3932.35 3612.65L3932.35 3528.65zM4077.85 3612.65L4150.6 3654.65L4150.6 3738.65L4077.85 3780.65L4005.1 3738.65L4005.1 3654.65zM4077.85 4116.65L4150.6 4158.65L4150.6 4242.65L4077.85 4284.65L4005.1 4242.65L4005.1 4158.65zM4005.1 4242.65L4077.85 4284.65L4077.85 4368.65L4005.1 4410.65L3932.35 4368.65L3932.35 4284.65zM4077.85 4620.65L4150.6 4662.65L4150.6 4746.65L4077.85 4788.65L4005.1 4746.65L4005.1 4662.65zM4005.1 4746.65L4077.85 4788.65L4077.85 4872.65L4005.1 4914.65L3932.35 4872.65L3932.35 4788.65zM4077.85 4872.65L4150.6 4914.65L4150.6 4998.65L4077.85 5040.65L4005.1 4998.65L4005.1 4914.65zM4005.1 4998.65L4077.85 5040.65L4077.85 5124.65L4005.1 5166.65L3932.35 5124.65L3932.35 5040.65zM4223.35 336.65L4296.1 378.65L4296.1 462.65L4223.35 504.65L4150.6 462.65L4150.6 378.65zM4223.35 588.65L4296.1 630.65L4296.1 714.65L4223.35 756.65L4150.6 714.65L4150.6 630.65zM4223.35 840.65L4296.1 882.65L4296.1 966.65L4223.35 1008.65L4150.6 966.65L4150.6 882.65zM4223.35 1092.65L4296.1 1134.65L4296.1 1218.65L4223.35 1260.65L4150.6 1218.65L4150.6 1134.65zM4150.6 1218.65L4223.35 1260.65L4223.35 1344.65L4150.6 1386.65L4077.85 1344.65L4077.85 1260.65zM4150.6 1470.65L4223.35 1512.65L4223.35 1596.65L4150.6 1638.65L4077.85 1596.65L4077.85 1512.65zM4223.35 1596.65L4296.1 1638.65L4296.1 1722.65L4223.35 1764.65L4150.6 1722.65L4150.6 1638.65zM4150.6 1722.65L4223.35 1764.65L4223.35 1848.65L4150.6 1890.65L4077.85 1848.65L4077.85 1764.65zM4150.6 1974.65L4223.35 2016.65L4223.35 2100.65L4150.6 2142.65L4077.85 2100.65L4077.85 2016.65zM4223.35 2100.65L4296.1 2142.65L4296.1 2226.65L4223.35 2268.65L4150.6 2226.65L4150.6 2142.65zM4150.6 2478.65L4223.35 2520.65L4223.35 2604.65L4150.6 2646.65L4077.85 2604.65L4077.85 2520.65zM4223.35 2604.65L4296.1 2646.65L4296.1 2730.65L4223.35 2772.65L4150.6 2730.65L4150.6 2646.65zM4150.6 2730.65L4223.35 2772.65L4223.35 2856.65L4150.6 2898.65L4077.85 2856.65L4077.85 2772.65zM4150.6 2982.65L4223.35 3024.65L4223.35 3108.65L4150.6 3150.65L4077.85 3108.65L4077.85 3024.65zM4223.35 3360.65L4296.1 3402.65L4296.1 3486.65L4223.35 3528.65L4150.6 3486.65L4150.6 3402.65zM4150.6 3486.65L4223.35 3528.65L4223.35 3612.65L4150.6 3654.65L4077.85 3612.65L4077.85 3528.65zM4150.6 3738.65L4223.35 3780.65L4223.35 3864.65L4150.6 3906.65L4077.85 3864.65L4077.85 3780.65zM4150.6 3990.65L4223.35 4032.65L4223.35 4116.65L4150.6 4158.65L4077.85 4116.65L4077.85 4032.65zM4223.35 4116.65L4296.1 4158.65L4296.1 4242.65L4223.35 4284.65L4150.6 4242.65L4150.6 4158.65zM4150.6 4242.65L4223.35 4284.65L4223.35 4368.65L4150.6 4410.65L4077.85 4368.65L4077.85 4284.65zM4150.6 4746.65L4223.35 4788.65L4223.35 4872.65L4150.6 4914.65L4077.85 4872.65L4077.85 4788.65zM4150.6 4998.65L4223.35 5040.65L4223.35 5124.65L4150.6 5166.65L4077.85 5124.65L4077.85 5040.65zM4296.1 -41.35L4368.84 0.65L4368.84 84.65L4296.1 126.65L4223.35 84.65L4223.35 0.65zM4368.84 336.65L4441.59 378.65L4441.59 462.65L4368.84 504.65L4296.1 462.65L4296.1 378.65zM4296.1 462.65L4368.84 504.65L4368.84 588.65L4296.1 630.65L4223.35 588.65L4223.35 504.65zM4368.84 588.65L4441.59 630.65L4441.59 714.65L4368.84 756.65L4296.1 714.65L4296.1 630.65zM4296.1 714.65L4368.84 756.65L4368.84 840.65L4296.1 882.65L4223.35 840.65L4223.35 756.65zM4368.84 1092.65L4441.59 1134.65L4441.59 1218.65L4368.84 1260.65L4296.1 1218.65L4296.1 1134.65zM4368.84 1344.65L4441.59 1386.65L4441.59 1470.65L4368.84 1512.65L4296.1 1470.65L4296.1 1386.65zM4368.84 2604.65L4441.59 2646.65L4441.59 2730.65L4368.84 2772.65L4296.1 2730.65L4296.1 2646.65zM4296.1 2730.65L4368.84 2772.65L4368.84 2856.65L4296.1 2898.65L4223.35 2856.65L4223.35 2772.65zM4296.1 3234.65L4368.84 3276.65L4368.84 3360.65L4296.1 3402.65L4223.35 3360.65L4223.35 3276.65zM4368.84 3612.65L4441.59 3654.65L4441.59 3738.65L4368.84 3780.65L4296.1 3738.65L4296.1 3654.65zM4296.1 3738.65L4368.84 3780.65L4368.84 3864.65L4296.1 3906.65L4223.35 3864.65L4223.35 3780.65zM4368.84 3864.65L4441.59 3906.65L4441.59 3990.65L4368.84 4032.65L4296.1 3990.65L4296.1 3906.65zM4296.1 4242.65L4368.84 4284.65L4368.84 4368.65L4296.1 4410.65L4223.35 4368.65L4223.35 4284.65zM4368.84 4368.65L4441.59 4410.65L4441.59 4494.65L4368.84 4536.65L4296.1 4494.65L4296.1 4410.65zM4296.1 4494.65L4368.84 4536.65L4368.84 4620.65L4296.1 4662.65L4223.35 4620.65L4223.35 4536.65zM4368.84 4620.65L4441.59 4662.65L4441.59 4746.65L4368.84 4788.65L4296.1 4746.65L4296.1 4662.65zM4368.84 4872.65L4441.59 4914.65L4441.59 4998.65L4368.84 5040.65L4296.1 4998.65L4296.1 4914.65zM4514.34 84.65L4587.09 126.65L4587.09 210.65L4514.34 252.65L4441.59 210.65L4441.59 126.65zM4441.59 210.65L4514.34 252.65L4514.34 336.65L4441.59 378.65L4368.84 336.65L4368.84 252.65zM4514.34 336.65L4587.09 378.65L4587.09 462.65L4514.34 504.65L4441.59 462.65L4441.59 378.65zM4514.34 840.65L4587.09 882.65L4587.09 966.65L4514.34 1008.65L4441.59 966.65L4441.59 882.65zM4514.34 1092.65L4587.09 1134.65L4587.09 1218.65L4514.34 1260.65L4441.59 1218.65L4441.59 1134.65zM4441.59 1218.65L4514.34 1260.65L4514.34 1344.65L4441.59 1386.65L4368.84 1344.65L4368.84 1260.65zM4514.34 1344.65L4587.09 1386.65L4587.09 1470.65L4514.34 1512.65L4441.59 1470.65L4441.59 1386.65zM4514.34 1848.65L4587.09 1890.65L4587.09 1974.65L4514.34 2016.65L4441.59 1974.65L4441.59 1890.65zM4441.59 1974.65L4514.34 2016.65L4514.34 2100.65L4441.59 2142.65L4368.84 2100.65L4368.84 2016.65zM4441.59 2478.65L4514.34 2520.65L4514.34 2604.65L4441.59 2646.65L4368.84 2604.65L4368.84 2520.65zM4514.34 2604.65L4587.09 2646.65L4587.09 2730.65L4514.34 2772.65L4441.59 2730.65L4441.59 2646.65zM4514.34 2856.65L4587.09 2898.65L4587.09 2982.65L4514.34 3024.65L4441.59 2982.65L4441.59 2898.65zM4441.59 3234.65L4514.34 3276.65L4514.34 3360.65L4441.59 3402.65L4368.84 3360.65L4368.84 3276.65zM4514.34 3360.65L4587.09 3402.65L4587.09 3486.65L4514.34 3528.65L4441.59 3486.65L4441.59 3402.65zM4441.59 3738.65L4514.34 3780.65L4514.34 3864.65L4441.59 3906.65L4368.84 3864.65L4368.84 3780.65zM4441.59 3990.65L4514.34 4032.65L4514.34 4116.65L4441.59 4158.65L4368.84 4116.65L4368.84 4032.65zM4514.34 4116.65L4587.09 4158.65L4587.09 4242.65L4514.34 4284.65L4441.59 4242.65L4441.59 4158.65zM4441.59 4242.65L4514.34 4284.65L4514.34 4368.65L4441.59 4410.65L4368.84 4368.65L4368.84 4284.65zM4441.59 4998.65L4514.34 5040.65L4514.34 5124.65L4441.59 5166.65L4368.84 5124.65L4368.84 5040.65zM4659.84 84.65L4732.58 126.65L4732.58 210.65L4659.84 252.65L4587.09 210.65L4587.09 126.65zM4587.09 210.65L4659.84 252.65L4659.84 336.65L4587.09 378.65L4514.34 336.65L4514.34 252.65zM4659.84 1092.65L4732.58 1134.65L4732.58 1218.65L4659.84 1260.65L4587.09 1218.65L4587.09 1134.65zM4587.09 1218.65L4659.84 1260.65L4659.84 1344.65L4587.09 1386.65L4514.34 1344.65L4514.34 1260.65zM4587.09 1470.65L4659.84 1512.65L4659.84 1596.65L4587.09 1638.65L4514.34 1596.65L4514.34 1512.65zM4659.84 1596.65L4732.58 1638.65L4732.58 1722.65L4659.84 1764.65L4587.09 1722.65L4587.09 1638.65zM4587.09 1722.65L4659.84 1764.65L4659.84 1848.65L4587.09 1890.65L4514.34 1848.65L4514.34 1764.65zM4659.84 1848.65L4732.58 1890.65L4732.58 1974.65L4659.84 2016.65L4587.09 1974.65L4587.09 1890.65zM4659.84 2100.65L4732.58 2142.65L4732.58 2226.65L4659.84 2268.65L4587.09 2226.65L4587.09 2142.65zM4659.84 2352.65L4732.58 2394.65L4732.58 2478.65L4659.84 2520.65L4587.09 2478.65L4587.09 2394.65zM4659.84 2604.65L4732.58 2646.65L4732.58 2730.65L4659.84 2772.65L4587.09 2730.65L4587.09 2646.65zM4659.84 2856.65L4732.58 2898.65L4732.58 2982.65L4659.84 3024.65L4587.09 2982.65L4587.09 2898.65zM4659.84 3108.65L4732.58 3150.65L4732.58 3234.65L4659.84 3276.65L4587.09 3234.65L4587.09 3150.65zM4659.84 3360.65L4732.58 3402.65L4732.58 3486.65L4659.84 3528.65L4587.09 3486.65L4587.09 3402.65zM4659.84 4116.65L4732.58 4158.65L4732.58 4242.65L4659.84 4284.65L4587.09 4242.65L4587.09 4158.65zM4659.84 4620.65L4732.58 4662.65L4732.58 4746.65L4659.84 4788.65L4587.09 4746.65L4587.09 4662.65zM4659.84 4872.65L4732.58 4914.65L4732.58 4998.65L4659.84 5040.65L4587.09 4998.65L4587.09 4914.65zM4587.09 4998.65L4659.84 5040.65L4659.84 5124.65L4587.09 5166.65L4514.34 5124.65L4514.34 5040.65zM4732.58 -41.35L4805.33 0.65L4805.33 84.65L4732.58 126.65L4659.84 84.65L4659.84 0.65zM4805.33 84.65L4878.08 126.65L4878.08 210.65L4805.33 252.65L4732.58 210.65L4732.58 126.65zM4732.58 714.65L4805.33 756.65L4805.33 840.65L4732.58 882.65L4659.84 840.65L4659.84 756.65zM4732.58 966.65L4805.33 1008.65L4805.33 1092.65L4732.58 1134.65L4659.84 1092.65L4659.84 1008.65zM4805.33 1092.65L4878.08 1134.65L4878.08 1218.65L4805.33 1260.65L4732.58 1218.65L4732.58 1134.65zM4732.58 1218.65L4805.33 1260.65L4805.33 1344.65L4732.58 1386.65L4659.84 1344.65L4659.84 1260.65zM4732.58 1470.65L4805.33 1512.65L4805.33 1596.65L4732.58 1638.65L4659.84 1596.65L4659.84 1512.65zM4805.33 1596.65L4878.08 1638.65L4878.08 1722.65L4805.33 1764.65L4732.58 1722.65L4732.58 1638.65zM4732.58 1722.65L4805.33 1764.65L4805.33 1848.65L4732.58 1890.65L4659.84 1848.65L4659.84 1764.65zM4805.33 1848.65L4878.08 1890.65L4878.08 1974.65L4805.33 2016.65L4732.58 1974.65L4732.58 1890.65zM4805.33 2604.65L4878.08 2646.65L4878.08 2730.65L4805.33 2772.65L4732.58 2730.65L4732.58 2646.65zM4805.33 2856.65L4878.08 2898.65L4878.08 2982.65L4805.33 3024.65L4732.58 2982.65L4732.58 2898.65zM4732.58 2982.65L4805.33 3024.65L4805.33 3108.65L4732.58 3150.65L4659.84 3108.65L4659.84 3024.65zM4732.58 3486.65L4805.33 3528.65L4805.33 3612.65L4732.58 3654.65L4659.84 3612.65L4659.84 3528.65zM4732.58 3738.65L4805.33 3780.65L4805.33 3864.65L4732.58 3906.65L4659.84 3864.65L4659.84 3780.65zM4732.58 3990.65L4805.33 4032.65L4805.33 4116.65L4732.58 4158.65L4659.84 4116.65L4659.84 4032.65zM4805.33 4116.65L4878.08 4158.65L4878.08 4242.65L4805.33 4284.65L4732.58 4242.65L4732.58 4158.65zM4732.58 4242.65L4805.33 4284.65L4805.33 4368.65L4732.58 4410.65L4659.84 4368.65L4659.84 4284.65zM4805.33 4368.65L4878.08 4410.65L4878.08 4494.65L4805.33 4536.65L4732.58 4494.65L4732.58 4410.65zM4732.58 4494.65L4805.33 4536.65L4805.33 4620.65L4732.58 4662.65L4659.84 4620.65L4659.84 4536.65zM4805.33 4872.65L4878.08 4914.65L4878.08 4998.65L4805.33 5040.65L4732.58 4998.65L4732.58 4914.65zM4732.58 4998.65L4805.33 5040.65L4805.33 5124.65L4732.58 5166.65L4659.84 5124.65L4659.84 5040.65zM4950.83 84.65L5023.58 126.65L5023.58 210.65L4950.83 252.65L4878.08 210.65L4878.08 126.65zM4950.83 336.65L5023.58 378.65L5023.58 462.65L4950.83 504.65L4878.08 462.65L4878.08 378.65zM4878.08 714.65L4950.83 756.65L4950.83 840.65L4878.08 882.65L4805.33 840.65L4805.33 756.65zM4950.83 840.65L5023.58 882.65L5023.58 966.65L4950.83 1008.65L4878.08 966.65L4878.08 882.65zM4878.08 966.65L4950.83 1008.65L4950.83 1092.65L4878.08 1134.65L4805.33 1092.65L4805.33 1008.65zM4878.08 1470.65L4950.83 1512.65L4950.83 1596.65L4878.08 1638.65L4805.33 1596.65L4805.33 1512.65zM4950.83 1596.65L5023.58 1638.65L5023.58 1722.65L4950.83 1764.65L4878.08 1722.65L4878.08 1638.65zM4950.83 1848.65L5023.58 1890.65L5023.58 1974.65L4950.83 2016.65L4878.08 1974.65L4878.08 1890.65zM4878.08 1974.65L4950.83 2016.65L4950.83 2100.65L4878.08 2142.65L4805.33 2100.65L4805.33 2016.65zM4950.83 2100.65L5023.58 2142.65L5023.58 2226.65L4950.83 2268.65L4878.08 2226.65L4878.08 2142.65zM4950.83 2604.65L5023.58 2646.65L5023.58 2730.65L4950.83 2772.65L4878.08 2730.65L4878.08 2646.65zM4878.08 2730.65L4950.83 2772.65L4950.83 2856.65L4878.08 2898.65L4805.33 2856.65L4805.33 2772.65zM4950.83 3108.65L5023.58 3150.65L5023.58 3234.65L4950.83 3276.65L4878.08 3234.65L4878.08 3150.65zM4950.83 3360.65L5023.58 3402.65L5023.58 3486.65L4950.83 3528.65L4878.08 3486.65L4878.08 3402.65zM4878.08 3486.65L4950.83 3528.65L4950.83 3612.65L4878.08 3654.65L4805.33 3612.65L4805.33 3528.65zM4878.08 3990.65L4950.83 4032.65L4950.83 4116.65L4878.08 4158.65L4805.33 4116.65L4805.33 4032.65zM4950.83 4368.65L5023.58 4410.65L5023.58 4494.65L4950.83 4536.65L4878.08 4494.65L4878.08 4410.65zM4878.08 4494.65L4950.83 4536.65L4950.83 4620.65L4878.08 4662.65L4805.33 4620.65L4805.33 4536.65zM4950.83 4620.65L5023.58 4662.65L5023.58 4746.65L4950.83 4788.65L4878.08 4746.65L4878.08 4662.65zM4878.08 4746.65L4950.83 4788.65L4950.83 4872.65L4878.08 4914.65L4805.33 4872.65L4805.33 4788.65zM5023.58 -41.35L5096.33 0.65L5096.33 84.65L5023.58 126.65L4950.83 84.65L4950.83 0.65zM5023.58 210.65L5096.33 252.65L5096.33 336.65L5023.58 378.65L4950.83 336.65L4950.83 252.65zM5096.33 336.65L5169.07 378.65L5169.07 462.65L5096.33 504.65L5023.58 462.65L5023.58 378.65zM5096.33 588.65L5169.07 630.65L5169.07 714.65L5096.33 756.65L5023.58 714.65L5023.58 630.65zM5023.58 966.65L5096.33 1008.65L5096.33 1092.65L5023.58 1134.65L4950.83 1092.65L4950.83 1008.65zM5023.58 1218.65L5096.33 1260.65L5096.33 1344.65L5023.58 1386.65L4950.83 1344.65L4950.83 1260.65zM5096.33 1344.65L5169.07 1386.65L5169.07 1470.65L5096.33 1512.65L5023.58 1470.65L5023.58 1386.65zM5023.58 1470.65L5096.33 1512.65L5096.33 1596.65L5023.58 1638.65L4950.83 1596.65L4950.83 1512.65zM5023.58 1974.65L5096.33 2016.65L5096.33 2100.65L5023.58 2142.65L4950.83 2100.65L4950.83 2016.65zM5096.33 2100.65L5169.07 2142.65L5169.07 2226.65L5096.33 2268.65L5023.58 2226.65L5023.58 2142.65zM5023.58 2226.65L5096.33 2268.65L5096.33 2352.65L5023.58 2394.65L4950.83 2352.65L4950.83 2268.65zM5096.33 2352.65L5169.07 2394.65L5169.07 2478.65L5096.33 2520.65L5023.58 2478.65L5023.58 2394.65zM5096.33 2604.65L5169.07 2646.65L5169.07 2730.65L5096.33 2772.65L5023.58 2730.65L5023.58 2646.65zM5023.58 2982.65L5096.33 3024.65L5096.33 3108.65L5023.58 3150.65L4950.83 3108.65L4950.83 3024.65zM5023.58 3234.65L5096.33 3276.65L5096.33 3360.65L5023.58 3402.65L4950.83 3360.65L4950.83 3276.65zM5096.33 3612.65L5169.07 3654.65L5169.07 3738.65L5096.33 3780.65L5023.58 3738.65L5023.58 3654.65zM5023.58 3990.65L5096.33 4032.65L5096.33 4116.65L5023.58 4158.65L4950.83 4116.65L4950.83 4032.65zM5096.33 4368.65L5169.07 4410.65L5169.07 4494.65L5096.33 4536.65L5023.58 4494.65L5023.58 4410.65zM5023.58 4494.65L5096.33 4536.65L5096.33 4620.65L5023.58 4662.65L4950.83 4620.65L4950.83 4536.65zM5023.58 4746.65L5096.33 4788.65L5096.33 4872.65L5023.58 4914.65L4950.83 4872.65L4950.83 4788.65zM5096.33 4872.65L5169.07 4914.65L5169.07 4998.65L5096.33 5040.65L5023.58 4998.65L5023.58 4914.65z" stroke="rgba(54, 157, 199, 1)" stroke-width="2"></path><path d="M145.68 888.95L224.49 934.45L224.49 1025.45L145.68 1070.95L66.87 1025.45L66.87 934.45zM66.87 1571.45L145.68 1616.95L145.68 1707.95L66.87 1753.45L-11.94 1707.95L-11.94 1616.95zM145.68 1980.95L224.49 2026.45L224.49 2117.45L145.68 2162.95L66.87 2117.45L66.87 2026.45zM66.87 2117.45L145.68 2162.95L145.68 2253.95L66.87 2299.45L-11.94 2253.95L-11.94 2162.95zM66.87 3755.45L145.68 3800.95L145.68 3891.95L66.87 3937.45L-11.94 3891.95L-11.94 3800.95zM145.68 4164.95L224.49 4210.45L224.49 4301.45L145.68 4346.95L66.87 4301.45L66.87 4210.45zM224.49 752.45L303.3 797.95L303.3 888.95L224.49 934.45L145.68 888.95L145.68 797.95zM303.3 888.95L382.11 934.45L382.11 1025.45L303.3 1070.95L224.49 1025.45L224.49 934.45zM224.49 1025.45L303.3 1070.95L303.3 1161.95L224.49 1207.45L145.68 1161.95L145.68 1070.95zM303.3 1434.95L382.11 1480.45L382.11 1571.45L303.3 1616.95L224.49 1571.45L224.49 1480.45zM224.49 2117.45L303.3 2162.95L303.3 2253.95L224.49 2299.45L145.68 2253.95L145.68 2162.95zM303.3 2526.95L382.11 2572.45L382.11 2663.45L303.3 2708.95L224.49 2663.45L224.49 2572.45zM224.49 3755.45L303.3 3800.95L303.3 3891.95L224.49 3937.45L145.68 3891.95L145.68 3800.95zM303.3 4437.95L382.11 4483.45L382.11 4574.45L303.3 4619.95L224.49 4574.45L224.49 4483.45zM303.3 4710.95L382.11 4756.45L382.11 4847.45L303.3 4892.95L224.49 4847.45L224.49 4756.45zM382.11 752.45L460.92 797.95L460.92 888.95L382.11 934.45L303.3 888.95L303.3 797.95zM460.92 888.95L539.73 934.45L539.73 1025.45L460.92 1070.95L382.11 1025.45L382.11 934.45zM382.11 1844.45L460.92 1889.95L460.92 1980.95L382.11 2026.45L303.3 1980.95L303.3 1889.95zM382.11 3209.45L460.92 3254.95L460.92 3345.95L382.11 3391.45L303.3 3345.95L303.3 3254.95zM460.92 3618.95L539.73 3664.45L539.73 3755.45L460.92 3800.95L382.11 3755.45L382.11 3664.45zM382.11 4301.45L460.92 4346.95L460.92 4437.95L382.11 4483.45L303.3 4437.95L303.3 4346.95zM539.73 206.45L618.54 251.95L618.54 342.95L539.73 388.45L460.92 342.95L460.92 251.95zM618.54 342.95L697.35 388.45L697.35 479.45L618.54 524.95L539.73 479.45L539.73 388.45zM618.54 615.95L697.35 661.45L697.35 752.45L618.54 797.95L539.73 752.45L539.73 661.45zM539.73 1844.45L618.54 1889.95L618.54 1980.95L539.73 2026.45L460.92 1980.95L460.92 1889.95zM618.54 3618.95L697.35 3664.45L697.35 3755.45L618.54 3800.95L539.73 3755.45L539.73 3664.45zM618.54 3891.95L697.35 3937.45L697.35 4028.45L618.54 4073.95L539.73 4028.45L539.73 3937.45zM618.54 4437.95L697.35 4483.45L697.35 4574.45L618.54 4619.95L539.73 4574.45L539.73 4483.45zM539.73 4574.45L618.54 4619.95L618.54 4710.95L539.73 4756.45L460.92 4710.95L460.92 4619.95zM618.54 4983.95L697.35 5029.45L697.35 5120.45L618.54 5165.95L539.73 5120.45L539.73 5029.45zM776.16 888.95L854.98 934.45L854.98 1025.45L776.16 1070.95L697.35 1025.45L697.35 934.45zM776.16 1161.95L854.98 1207.45L854.98 1298.45L776.16 1343.95L697.35 1298.45L697.35 1207.45zM776.16 1434.95L854.98 1480.45L854.98 1571.45L776.16 1616.95L697.35 1571.45L697.35 1480.45zM776.16 1707.95L854.98 1753.45L854.98 1844.45L776.16 1889.95L697.35 1844.45L697.35 1753.45zM697.35 2117.45L776.16 2162.95L776.16 2253.95L697.35 2299.45L618.54 2253.95L618.54 2162.95zM697.35 2663.45L776.16 2708.95L776.16 2799.95L697.35 2845.45L618.54 2799.95L618.54 2708.95zM776.16 2799.95L854.98 2845.45L854.98 2936.45L776.16 2981.95L697.35 2936.45L697.35 2845.45zM697.35 3209.45L776.16 3254.95L776.16 3345.95L697.35 3391.45L618.54 3345.95L618.54 3254.95zM776.16 3891.95L854.98 3937.45L854.98 4028.45L776.16 4073.95L697.35 4028.45L697.35 3937.45zM776.16 4164.95L854.98 4210.45L854.98 4301.45L776.16 4346.95L697.35 4301.45L697.35 4210.45zM697.35 4574.45L776.16 4619.95L776.16 4710.95L697.35 4756.45L618.54 4710.95L618.54 4619.95zM933.79 342.95L1012.6 388.45L1012.6 479.45L933.79 524.95L854.98 479.45L854.98 388.45zM854.98 752.45L933.79 797.95L933.79 888.95L854.98 934.45L776.16 888.95L776.16 797.95zM933.79 888.95L1012.6 934.45L1012.6 1025.45L933.79 1070.95L854.98 1025.45L854.98 934.45zM854.98 2936.45L933.79 2981.95L933.79 3072.95L854.98 3118.45L776.16 3072.95L776.16 2981.95zM933.79 3345.95L1012.6 3391.45L1012.6 3482.45L933.79 3527.95L854.98 3482.45L854.98 3391.45zM933.79 4164.95L1012.6 4210.45L1012.6 4301.45L933.79 4346.95L854.98 4301.45L854.98 4210.45zM854.98 4301.45L933.79 4346.95L933.79 4437.95L854.98 4483.45L776.16 4437.95L776.16 4346.95zM1012.6 1025.45L1091.41 1070.95L1091.41 1161.95L1012.6 1207.45L933.79 1161.95L933.79 1070.95zM1012.6 2117.45L1091.41 2162.95L1091.41 2253.95L1012.6 2299.45L933.79 2253.95L933.79 2162.95zM1091.41 2253.95L1170.22 2299.45L1170.22 2390.45L1091.41 2435.95L1012.6 2390.45L1012.6 2299.45zM1012.6 2936.45L1091.41 2981.95L1091.41 3072.95L1012.6 3118.45L933.79 3072.95L933.79 2981.95zM1091.41 3072.95L1170.22 3118.45L1170.22 3209.45L1091.41 3254.95L1012.6 3209.45L1012.6 3118.45zM1091.41 3891.95L1170.22 3937.45L1170.22 4028.45L1091.41 4073.95L1012.6 4028.45L1012.6 3937.45zM1012.6 4847.45L1091.41 4892.95L1091.41 4983.95L1012.6 5029.45L933.79 4983.95L933.79 4892.95zM1170.22 206.45L1249.03 251.95L1249.03 342.95L1170.22 388.45L1091.41 342.95L1091.41 251.95zM1249.03 1434.95L1327.84 1480.45L1327.84 1571.45L1249.03 1616.95L1170.22 1571.45L1170.22 1480.45zM1249.03 1980.95L1327.84 2026.45L1327.84 2117.45L1249.03 2162.95L1170.22 2117.45L1170.22 2026.45zM1249.03 2799.95L1327.84 2845.45L1327.84 2936.45L1249.03 2981.95L1170.22 2936.45L1170.22 2845.45zM1249.03 3072.95L1327.84 3118.45L1327.84 3209.45L1249.03 3254.95L1170.22 3209.45L1170.22 3118.45zM1327.84 206.45L1406.65 251.95L1406.65 342.95L1327.84 388.45L1249.03 342.95L1249.03 251.95zM1327.84 479.45L1406.65 524.95L1406.65 615.95L1327.84 661.45L1249.03 615.95L1249.03 524.95zM1327.84 2117.45L1406.65 2162.95L1406.65 2253.95L1327.84 2299.45L1249.03 2253.95L1249.03 2162.95zM1327.84 2663.45L1406.65 2708.95L1406.65 2799.95L1327.84 2845.45L1249.03 2799.95L1249.03 2708.95zM1406.65 3618.95L1485.46 3664.45L1485.46 3755.45L1406.65 3800.95L1327.84 3755.45L1327.84 3664.45zM1406.65 4164.95L1485.46 4210.45L1485.46 4301.45L1406.65 4346.95L1327.84 4301.45L1327.84 4210.45zM1327.84 4301.45L1406.65 4346.95L1406.65 4437.95L1327.84 4483.45L1249.03 4437.95L1249.03 4346.95zM1485.46 -66.55L1564.27 -21.05L1564.27 69.95L1485.46 115.45L1406.65 69.95L1406.65 -21.05zM1564.27 888.95L1643.08 934.45L1643.08 1025.45L1564.27 1070.95L1485.46 1025.45L1485.46 934.45zM1485.46 1025.45L1564.27 1070.95L1564.27 1161.95L1485.46 1207.45L1406.65 1161.95L1406.65 1070.95zM1485.46 2390.45L1564.27 2435.95L1564.27 2526.95L1485.46 2572.45L1406.65 2526.95L1406.65 2435.95zM1485.46 2663.45L1564.27 2708.95L1564.27 2799.95L1485.46 2845.45L1406.65 2799.95L1406.65 2708.95zM1564.27 3618.95L1643.08 3664.45L1643.08 3755.45L1564.27 3800.95L1485.46 3755.45L1485.46 3664.45zM1485.46 4301.45L1564.27 4346.95L1564.27 4437.95L1485.46 4483.45L1406.65 4437.95L1406.65 4346.95zM1564.27 4437.95L1643.08 4483.45L1643.08 4574.45L1564.27 4619.95L1485.46 4574.45L1485.46 4483.45zM1485.46 4847.45L1564.27 4892.95L1564.27 4983.95L1485.46 5029.45L1406.65 4983.95L1406.65 4892.95zM1643.08 -66.55L1721.89 -21.05L1721.89 69.95L1643.08 115.45L1564.27 69.95L1564.27 -21.05zM1721.89 342.95L1800.7 388.45L1800.7 479.45L1721.89 524.95L1643.08 479.45L1643.08 388.45zM1721.89 615.95L1800.7 661.45L1800.7 752.45L1721.89 797.95L1643.08 752.45L1643.08 661.45zM1721.89 1161.95L1800.7 1207.45L1800.7 1298.45L1721.89 1343.95L1643.08 1298.45L1643.08 1207.45zM1721.89 3891.95L1800.7 3937.45L1800.7 4028.45L1721.89 4073.95L1643.08 4028.45L1643.08 3937.45zM1800.7 -66.55L1879.51 -21.05L1879.51 69.95L1800.7 115.45L1721.89 69.95L1721.89 -21.05zM1800.7 2663.45L1879.51 2708.95L1879.51 2799.95L1800.7 2845.45L1721.89 2799.95L1721.89 2708.95zM1879.51 2799.95L1958.32 2845.45L1958.32 2936.45L1879.51 2981.95L1800.7 2936.45L1800.7 2845.45zM1958.32 1298.45L2037.13 1343.95L2037.13 1434.95L1958.32 1480.45L1879.51 1434.95L1879.51 1343.95zM1958.32 1571.45L2037.13 1616.95L2037.13 1707.95L1958.32 1753.45L1879.51 1707.95L1879.51 1616.95zM2037.13 3072.95L2115.94 3118.45L2115.94 3209.45L2037.13 3254.95L1958.32 3209.45L1958.32 3118.45zM1958.32 3482.45L2037.13 3527.95L2037.13 3618.95L1958.32 3664.45L1879.51 3618.95L1879.51 3527.95zM2037.13 3891.95L2115.94 3937.45L2115.94 4028.45L2037.13 4073.95L1958.32 4028.45L1958.32 3937.45zM2037.13 4710.95L2115.94 4756.45L2115.94 4847.45L2037.13 4892.95L1958.32 4847.45L1958.32 4756.45zM2115.94 479.45L2194.75 524.95L2194.75 615.95L2115.94 661.45L2037.13 615.95L2037.13 524.95zM2115.94 752.45L2194.75 797.95L2194.75 888.95L2115.94 934.45L2037.13 888.95L2037.13 797.95zM2115.94 2117.45L2194.75 2162.95L2194.75 2253.95L2115.94 2299.45L2037.13 2253.95L2037.13 2162.95zM2194.75 3072.95L2273.57 3118.45L2273.57 3209.45L2194.75 3254.95L2115.94 3209.45L2115.94 3118.45zM2115.94 4028.45L2194.75 4073.95L2194.75 4164.95L2115.94 4210.45L2037.13 4164.95L2037.13 4073.95zM2115.94 4847.45L2194.75 4892.95L2194.75 4983.95L2115.94 5029.45L2037.13 4983.95L2037.13 4892.95zM2352.38 69.95L2431.19 115.45L2431.19 206.45L2352.38 251.95L2273.57 206.45L2273.57 115.45zM2352.38 888.95L2431.19 934.45L2431.19 1025.45L2352.38 1070.95L2273.57 1025.45L2273.57 934.45zM2273.57 1025.45L2352.38 1070.95L2352.38 1161.95L2273.57 1207.45L2194.75 1161.95L2194.75 1070.95zM2352.38 1434.95L2431.19 1480.45L2431.19 1571.45L2352.38 1616.95L2273.57 1571.45L2273.57 1480.45zM2273.57 2390.45L2352.38 2435.95L2352.38 2526.95L2273.57 2572.45L2194.75 2526.95L2194.75 2435.95zM2273.57 2663.45L2352.38 2708.95L2352.38 2799.95L2273.57 2845.45L2194.75 2799.95L2194.75 2708.95zM2352.38 3345.95L2431.19 3391.45L2431.19 3482.45L2352.38 3527.95L2273.57 3482.45L2273.57 3391.45zM2352.38 3891.95L2431.19 3937.45L2431.19 4028.45L2352.38 4073.95L2273.57 4028.45L2273.57 3937.45zM2352.38 4164.95L2431.19 4210.45L2431.19 4301.45L2352.38 4346.95L2273.57 4301.45L2273.57 4210.45zM2352.38 4437.95L2431.19 4483.45L2431.19 4574.45L2352.38 4619.95L2273.57 4574.45L2273.57 4483.45zM2352.38 4983.95L2431.19 5029.45L2431.19 5120.45L2352.38 5165.95L2273.57 5120.45L2273.57 5029.45zM2431.19 -66.55L2510 -21.05L2510 69.95L2431.19 115.45L2352.38 69.95L2352.38 -21.05zM2431.19 479.45L2510 524.95L2510 615.95L2431.19 661.45L2352.38 615.95L2352.38 524.95zM2431.19 1025.45L2510 1070.95L2510 1161.95L2431.19 1207.45L2352.38 1161.95L2352.38 1070.95zM2510 2526.95L2588.81 2572.45L2588.81 2663.45L2510 2708.95L2431.19 2663.45L2431.19 2572.45zM2431.19 2663.45L2510 2708.95L2510 2799.95L2431.19 2845.45L2352.38 2799.95L2352.38 2708.95zM2510 3345.95L2588.81 3391.45L2588.81 3482.45L2510 3527.95L2431.19 3482.45L2431.19 3391.45zM2431.19 3482.45L2510 3527.95L2510 3618.95L2431.19 3664.45L2352.38 3618.95L2352.38 3527.95zM2510 3618.95L2588.81 3664.45L2588.81 3755.45L2510 3800.95L2431.19 3755.45L2431.19 3664.45zM2510 4164.95L2588.81 4210.45L2588.81 4301.45L2510 4346.95L2431.19 4301.45L2431.19 4210.45zM2510 4437.95L2588.81 4483.45L2588.81 4574.45L2510 4619.95L2431.19 4574.45L2431.19 4483.45zM2510 4983.95L2588.81 5029.45L2588.81 5120.45L2510 5165.95L2431.19 5120.45L2431.19 5029.45zM2667.62 342.95L2746.43 388.45L2746.43 479.45L2667.62 524.95L2588.81 479.45L2588.81 388.45zM2588.81 479.45L2667.62 524.95L2667.62 615.95L2588.81 661.45L2510 615.95L2510 524.95zM2588.81 1298.45L2667.62 1343.95L2667.62 1434.95L2588.81 1480.45L2510 1434.95L2510 1343.95zM2667.62 1434.95L2746.43 1480.45L2746.43 1571.45L2667.62 1616.95L2588.81 1571.45L2588.81 1480.45zM2667.62 3072.95L2746.43 3118.45L2746.43 3209.45L2667.62 3254.95L2588.81 3209.45L2588.81 3118.45zM2667.62 4710.95L2746.43 4756.45L2746.43 4847.45L2667.62 4892.95L2588.81 4847.45L2588.81 4756.45zM2588.81 4847.45L2667.62 4892.95L2667.62 4983.95L2588.81 5029.45L2510 4983.95L2510 4892.95zM2746.43 479.45L2825.24 524.95L2825.24 615.95L2746.43 661.45L2667.62 615.95L2667.62 524.95zM2825.24 615.95L2904.05 661.45L2904.05 752.45L2825.24 797.95L2746.43 752.45L2746.43 661.45zM2825.24 1980.95L2904.05 2026.45L2904.05 2117.45L2825.24 2162.95L2746.43 2117.45L2746.43 2026.45zM2746.43 2390.45L2825.24 2435.95L2825.24 2526.95L2746.43 2572.45L2667.62 2526.95L2667.62 2435.95zM2825.24 3072.95L2904.05 3118.45L2904.05 3209.45L2825.24 3254.95L2746.43 3209.45L2746.43 3118.45zM2746.43 3482.45L2825.24 3527.95L2825.24 3618.95L2746.43 3664.45L2667.62 3618.95L2667.62 3527.95zM2746.43 4301.45L2825.24 4346.95L2825.24 4437.95L2746.43 4483.45L2667.62 4437.95L2667.62 4346.95zM2825.24 4710.95L2904.05 4756.45L2904.05 4847.45L2825.24 4892.95L2746.43 4847.45L2746.43 4756.45zM2825.24 4983.95L2904.05 5029.45L2904.05 5120.45L2825.24 5165.95L2746.43 5120.45L2746.43 5029.45zM2904.05 479.45L2982.86 524.95L2982.86 615.95L2904.05 661.45L2825.24 615.95L2825.24 524.95zM2904.05 1298.45L2982.86 1343.95L2982.86 1434.95L2904.05 1480.45L2825.24 1434.95L2825.24 1343.95zM2904.05 1844.45L2982.86 1889.95L2982.86 1980.95L2904.05 2026.45L2825.24 1980.95L2825.24 1889.95zM2904.05 2117.45L2982.86 2162.95L2982.86 2253.95L2904.05 2299.45L2825.24 2253.95L2825.24 2162.95zM2904.05 3209.45L2982.86 3254.95L2982.86 3345.95L2904.05 3391.45L2825.24 3345.95L2825.24 3254.95zM2904.05 3482.45L2982.86 3527.95L2982.86 3618.95L2904.05 3664.45L2825.24 3618.95L2825.24 3527.95zM2982.86 4437.95L3061.67 4483.45L3061.67 4574.45L2982.86 4619.95L2904.05 4574.45L2904.05 4483.45zM2982.86 4983.95L3061.67 5029.45L3061.67 5120.45L2982.86 5165.95L2904.05 5120.45L2904.05 5029.45zM3140.48 1980.95L3219.29 2026.45L3219.29 2117.45L3140.48 2162.95L3061.67 2117.45L3061.67 2026.45zM3140.48 2253.95L3219.29 2299.45L3219.29 2390.45L3140.48 2435.95L3061.67 2390.45L3061.67 2299.45zM3061.67 3209.45L3140.48 3254.95L3140.48 3345.95L3061.67 3391.45L2982.86 3345.95L2982.86 3254.95zM3140.48 3345.95L3219.29 3391.45L3219.29 3482.45L3140.48 3527.95L3061.67 3482.45L3061.67 3391.45zM3140.48 3891.95L3219.29 3937.45L3219.29 4028.45L3140.48 4073.95L3061.67 4028.45L3061.67 3937.45zM3140.48 4983.95L3219.29 5029.45L3219.29 5120.45L3140.48 5165.95L3061.67 5120.45L3061.67 5029.45zM3219.29 479.45L3298.1 524.95L3298.1 615.95L3219.29 661.45L3140.48 615.95L3140.48 524.95zM3219.29 1571.45L3298.1 1616.95L3298.1 1707.95L3219.29 1753.45L3140.48 1707.95L3140.48 1616.95zM3298.1 1707.95L3376.91 1753.45L3376.91 1844.45L3298.1 1889.95L3219.29 1844.45L3219.29 1753.45zM3298.1 3072.95L3376.91 3118.45L3376.91 3209.45L3298.1 3254.95L3219.29 3209.45L3219.29 3118.45zM3298.1 3891.95L3376.91 3937.45L3376.91 4028.45L3298.1 4073.95L3219.29 4028.45L3219.29 3937.45zM3298.1 4437.95L3376.91 4483.45L3376.91 4574.45L3298.1 4619.95L3219.29 4574.45L3219.29 4483.45zM3298.1 4983.95L3376.91 5029.45L3376.91 5120.45L3298.1 5165.95L3219.29 5120.45L3219.29 5029.45zM3376.91 206.45L3455.72 251.95L3455.72 342.95L3376.91 388.45L3298.1 342.95L3298.1 251.95zM3376.91 1571.45L3455.72 1616.95L3455.72 1707.95L3376.91 1753.45L3298.1 1707.95L3298.1 1616.95zM3455.72 1980.95L3534.53 2026.45L3534.53 2117.45L3455.72 2162.95L3376.91 2117.45L3376.91 2026.45zM3376.91 2117.45L3455.72 2162.95L3455.72 2253.95L3376.91 2299.45L3298.1 2253.95L3298.1 2162.95zM3455.72 2253.95L3534.53 2299.45L3534.53 2390.45L3455.72 2435.95L3376.91 2390.45L3376.91 2299.45zM3376.91 2936.45L3455.72 2981.95L3455.72 3072.95L3376.91 3118.45L3298.1 3072.95L3298.1 2981.95zM3455.72 3072.95L3534.53 3118.45L3534.53 3209.45L3455.72 3254.95L3376.91 3209.45L3376.91 3118.45zM3376.91 4574.45L3455.72 4619.95L3455.72 4710.95L3376.91 4756.45L3298.1 4710.95L3298.1 4619.95zM3534.53 206.45L3613.34 251.95L3613.34 342.95L3534.53 388.45L3455.72 342.95L3455.72 251.95zM3613.34 342.95L3692.16 388.45L3692.16 479.45L3613.34 524.95L3534.53 479.45L3534.53 388.45zM3534.53 479.45L3613.34 524.95L3613.34 615.95L3534.53 661.45L3455.72 615.95L3455.72 524.95zM3613.34 888.95L3692.16 934.45L3692.16 1025.45L3613.34 1070.95L3534.53 1025.45L3534.53 934.45zM3613.34 1434.95L3692.16 1480.45L3692.16 1571.45L3613.34 1616.95L3534.53 1571.45L3534.53 1480.45zM3534.53 2117.45L3613.34 2162.95L3613.34 2253.95L3534.53 2299.45L3455.72 2253.95L3455.72 2162.95zM3613.34 2526.95L3692.16 2572.45L3692.16 2663.45L3613.34 2708.95L3534.53 2663.45L3534.53 2572.45zM3613.34 2799.95L3692.16 2845.45L3692.16 2936.45L3613.34 2981.95L3534.53 2936.45L3534.53 2845.45zM3534.53 3209.45L3613.34 3254.95L3613.34 3345.95L3534.53 3391.45L3455.72 3345.95L3455.72 3254.95zM3692.16 1025.45L3770.97 1070.95L3770.97 1161.95L3692.16 1207.45L3613.34 1161.95L3613.34 1070.95zM3692.16 1571.45L3770.97 1616.95L3770.97 1707.95L3692.16 1753.45L3613.34 1707.95L3613.34 1616.95zM3770.97 2526.95L3849.78 2572.45L3849.78 2663.45L3770.97 2708.95L3692.16 2663.45L3692.16 2572.45zM3692.16 3209.45L3770.97 3254.95L3770.97 3345.95L3692.16 3391.45L3613.34 3345.95L3613.34 3254.95zM3692.16 3482.45L3770.97 3527.95L3770.97 3618.95L3692.16 3664.45L3613.34 3618.95L3613.34 3527.95zM3770.97 4437.95L3849.78 4483.45L3849.78 4574.45L3770.97 4619.95L3692.16 4574.45L3692.16 4483.45zM3849.78 -66.55L3928.59 -21.05L3928.59 69.95L3849.78 115.45L3770.97 69.95L3770.97 -21.05zM3928.59 69.95L4007.4 115.45L4007.4 206.45L3928.59 251.95L3849.78 206.45L3849.78 115.45zM3849.78 1025.45L3928.59 1070.95L3928.59 1161.95L3849.78 1207.45L3770.97 1161.95L3770.97 1070.95zM3928.59 1161.95L4007.4 1207.45L4007.4 1298.45L3928.59 1343.95L3849.78 1298.45L3849.78 1207.45zM3928.59 1707.95L4007.4 1753.45L4007.4 1844.45L3928.59 1889.95L3849.78 1844.45L3849.78 1753.45zM3849.78 1844.45L3928.59 1889.95L3928.59 1980.95L3849.78 2026.45L3770.97 1980.95L3770.97 1889.95zM3849.78 2663.45L3928.59 2708.95L3928.59 2799.95L3849.78 2845.45L3770.97 2799.95L3770.97 2708.95zM3928.59 2799.95L4007.4 2845.45L4007.4 2936.45L3928.59 2981.95L3849.78 2936.45L3849.78 2845.45zM3849.78 2936.45L3928.59 2981.95L3928.59 3072.95L3849.78 3118.45L3770.97 3072.95L3770.97 2981.95zM3928.59 3072.95L4007.4 3118.45L4007.4 3209.45L3928.59 3254.95L3849.78 3209.45L3849.78 3118.45zM3849.78 3209.45L3928.59 3254.95L3928.59 3345.95L3849.78 3391.45L3770.97 3345.95L3770.97 3254.95zM3928.59 3618.95L4007.4 3664.45L4007.4 3755.45L3928.59 3800.95L3849.78 3755.45L3849.78 3664.45zM3928.59 3891.95L4007.4 3937.45L4007.4 4028.45L3928.59 4073.95L3849.78 4028.45L3849.78 3937.45zM3849.78 4028.45L3928.59 4073.95L3928.59 4164.95L3849.78 4210.45L3770.97 4164.95L3770.97 4073.95zM3928.59 4437.95L4007.4 4483.45L4007.4 4574.45L3928.59 4619.95L3849.78 4574.45L3849.78 4483.45zM3928.59 4983.95L4007.4 5029.45L4007.4 5120.45L3928.59 5165.95L3849.78 5120.45L3849.78 5029.45zM4086.21 615.95L4165.02 661.45L4165.02 752.45L4086.21 797.95L4007.4 752.45L4007.4 661.45zM4007.4 1025.45L4086.21 1070.95L4086.21 1161.95L4007.4 1207.45L3928.59 1161.95L3928.59 1070.95zM4007.4 1298.45L4086.21 1343.95L4086.21 1434.95L4007.4 1480.45L3928.59 1434.95L3928.59 1343.95zM4086.21 1434.95L4165.02 1480.45L4165.02 1571.45L4086.21 1616.95L4007.4 1571.45L4007.4 1480.45zM4086.21 1980.95L4165.02 2026.45L4165.02 2117.45L4086.21 2162.95L4007.4 2117.45L4007.4 2026.45zM4007.4 2117.45L4086.21 2162.95L4086.21 2253.95L4007.4 2299.45L3928.59 2253.95L3928.59 2162.95zM4007.4 2936.45L4086.21 2981.95L4086.21 3072.95L4007.4 3118.45L3928.59 3072.95L3928.59 2981.95zM4007.4 3209.45L4086.21 3254.95L4086.21 3345.95L4007.4 3391.45L3928.59 3345.95L3928.59 3254.95zM4007.4 3482.45L4086.21 3527.95L4086.21 3618.95L4007.4 3664.45L3928.59 3618.95L3928.59 3527.95zM4086.21 3891.95L4165.02 3937.45L4165.02 4028.45L4086.21 4073.95L4007.4 4028.45L4007.4 3937.45zM4086.21 4437.95L4165.02 4483.45L4165.02 4574.45L4086.21 4619.95L4007.4 4574.45L4007.4 4483.45zM4243.83 69.95L4322.64 115.45L4322.64 206.45L4243.83 251.95L4165.02 206.45L4165.02 115.45zM4165.02 1025.45L4243.83 1070.95L4243.83 1161.95L4165.02 1207.45L4086.21 1161.95L4086.21 1070.95zM4165.02 2117.45L4243.83 2162.95L4243.83 2253.95L4165.02 2299.45L4086.21 2253.95L4086.21 2162.95zM4243.83 2526.95L4322.64 2572.45L4322.64 2663.45L4243.83 2708.95L4165.02 2663.45L4165.02 2572.45zM4243.83 2799.95L4322.64 2845.45L4322.64 2936.45L4243.83 2981.95L4165.02 2936.45L4165.02 2845.45zM4243.83 3891.95L4322.64 3937.45L4322.64 4028.45L4243.83 4073.95L4165.02 4028.45L4165.02 3937.45zM4243.83 4437.95L4322.64 4483.45L4322.64 4574.45L4243.83 4619.95L4165.02 4574.45L4165.02 4483.45zM4243.83 4710.95L4322.64 4756.45L4322.64 4847.45L4243.83 4892.95L4165.02 4847.45L4165.02 4756.45zM4322.64 479.45L4401.45 524.95L4401.45 615.95L4322.64 661.45L4243.83 615.95L4243.83 524.95zM4401.45 1707.95L4480.26 1753.45L4480.26 1844.45L4401.45 1889.95L4322.64 1844.45L4322.64 1753.45zM4322.64 1844.45L4401.45 1889.95L4401.45 1980.95L4322.64 2026.45L4243.83 1980.95L4243.83 1889.95zM4401.45 1980.95L4480.26 2026.45L4480.26 2117.45L4401.45 2162.95L4322.64 2117.45L4322.64 2026.45zM4401.45 2526.95L4480.26 2572.45L4480.26 2663.45L4401.45 2708.95L4322.64 2663.45L4322.64 2572.45zM4322.64 2663.45L4401.45 2708.95L4401.45 2799.95L4322.64 2845.45L4243.83 2799.95L4243.83 2708.95zM4322.64 3755.45L4401.45 3800.95L4401.45 3891.95L4322.64 3937.45L4243.83 3891.95L4243.83 3800.95zM4401.45 3891.95L4480.26 3937.45L4480.26 4028.45L4401.45 4073.95L4322.64 4028.45L4322.64 3937.45zM4559.07 615.95L4637.88 661.45L4637.88 752.45L4559.07 797.95L4480.26 752.45L4480.26 661.45zM4559.07 888.95L4637.88 934.45L4637.88 1025.45L4559.07 1070.95L4480.26 1025.45L4480.26 934.45zM4559.07 1707.95L4637.88 1753.45L4637.88 1844.45L4559.07 1889.95L4480.26 1844.45L4480.26 1753.45zM4480.26 2390.45L4559.07 2435.95L4559.07 2526.95L4480.26 2572.45L4401.45 2526.95L4401.45 2435.95zM4480.26 2936.45L4559.07 2981.95L4559.07 3072.95L4480.26 3118.45L4401.45 3072.95L4401.45 2981.95zM4559.07 3072.95L4637.88 3118.45L4637.88 3209.45L4559.07 3254.95L4480.26 3209.45L4480.26 3118.45zM4559.07 4710.95L4637.88 4756.45L4637.88 4847.45L4559.07 4892.95L4480.26 4847.45L4480.26 4756.45zM4716.69 615.95L4795.5 661.45L4795.5 752.45L4716.69 797.95L4637.88 752.45L4637.88 661.45zM4637.88 752.45L4716.69 797.95L4716.69 888.95L4637.88 934.45L4559.07 888.95L4559.07 797.95zM4637.88 1025.45L4716.69 1070.95L4716.69 1161.95L4637.88 1207.45L4559.07 1161.95L4559.07 1070.95zM4716.69 1980.95L4795.5 2026.45L4795.5 2117.45L4716.69 2162.95L4637.88 2117.45L4637.88 2026.45zM4637.88 2390.45L4716.69 2435.95L4716.69 2526.95L4637.88 2572.45L4559.07 2526.95L4559.07 2435.95zM4637.88 2663.45L4716.69 2708.95L4716.69 2799.95L4637.88 2845.45L4559.07 2799.95L4559.07 2708.95zM4637.88 3755.45L4716.69 3800.95L4716.69 3891.95L4637.88 3937.45L4559.07 3891.95L4559.07 3800.95zM4637.88 4028.45L4716.69 4073.95L4716.69 4164.95L4637.88 4210.45L4559.07 4164.95L4559.07 4073.95zM4637.88 4574.45L4716.69 4619.95L4716.69 4710.95L4637.88 4756.45L4559.07 4710.95L4559.07 4619.95zM4795.5 -66.55L4874.31 -21.05L4874.31 69.95L4795.5 115.45L4716.69 69.95L4716.69 -21.05zM4795.5 2390.45L4874.31 2435.95L4874.31 2526.95L4795.5 2572.45L4716.69 2526.95L4716.69 2435.95zM4795.5 2663.45L4874.31 2708.95L4874.31 2799.95L4795.5 2845.45L4716.69 2799.95L4716.69 2708.95zM4874.31 4164.95L4953.12 4210.45L4953.12 4301.45L4874.31 4346.95L4795.5 4301.45L4795.5 4210.45zM4874.31 4983.95L4953.12 5029.45L4953.12 5120.45L4874.31 5165.95L4795.5 5120.45L4795.5 5029.45zM4953.12 -66.55L5031.93 -21.05L5031.93 69.95L4953.12 115.45L4874.31 69.95L4874.31 -21.05zM4953.12 206.45L5031.93 251.95L5031.93 342.95L4953.12 388.45L4874.31 342.95L4874.31 251.95zM4953.12 1298.45L5031.93 1343.95L5031.93 1434.95L4953.12 1480.45L4874.31 1434.95L4874.31 1343.95zM5031.93 1434.95L5110.75 1480.45L5110.75 1571.45L5031.93 1616.95L4953.12 1571.45L4953.12 1480.45zM5031.93 2253.95L5110.75 2299.45L5110.75 2390.45L5031.93 2435.95L4953.12 2390.45L4953.12 2299.45zM4953.12 2663.45L5031.93 2708.95L5031.93 2799.95L4953.12 2845.45L4874.31 2799.95L4874.31 2708.95zM4953.12 3209.45L5031.93 3254.95L5031.93 3345.95L4953.12 3391.45L4874.31 3345.95L4874.31 3254.95zM4953.12 3482.45L5031.93 3527.95L5031.93 3618.95L4953.12 3664.45L4874.31 3618.95L4874.31 3527.95zM5031.93 4164.95L5110.75 4210.45L5110.75 4301.45L5031.93 4346.95L4953.12 4301.45L4953.12 4210.45z" stroke="rgba(223, 132, 191, 1)" stroke-width="2"></path></g><defs><mask id="SvgjsMask1226"><rect width="5000" height="5000" fill="#ffffff"></rect></mask></defs></svg>